<svg width="332" height="110" viewBox="0 0 332 110" fill="none" xmlns="http://www.w3.org/2000/svg">
<g clip-path="url(#clip0)">
<rect width="332" height="110" rx="4" fill="black"/>
<path d="M27.7725 21.1816V30H26.4395V26.1514H22.3789V30H21.0527V21.1816H22.3789V24.8867H26.4395V21.1816H27.7725ZM34.0684 26.8486C34.0684 26.5479 34.0182 26.2744 33.918 26.0283C33.8223 25.7822 33.6947 25.568 33.5352 25.3857C33.3757 25.2035 33.1888 25.0645 32.9746 24.9688C32.7604 24.8685 32.5417 24.8184 32.3184 24.8184C32.0951 24.8184 31.8763 24.8685 31.6621 24.9688C31.4479 25.0645 31.2611 25.2035 31.1016 25.3857C30.9421 25.568 30.8122 25.7845 30.7119 26.0352C30.6162 26.2812 30.5684 26.5524 30.5684 26.8486C30.5684 27.1494 30.6162 27.4229 30.7119 27.6689C30.8122 27.915 30.9421 28.1292 31.1016 28.3115C31.2611 28.4938 31.4479 28.6351 31.6621 28.7354C31.8763 28.8311 32.0951 28.8789 32.3184 28.8789C32.5417 28.8789 32.7604 28.8311 32.9746 28.7354C33.1888 28.6351 33.3757 28.4938 33.5352 28.3115C33.6947 28.1292 33.8223 27.915 33.918 27.6689C34.0182 27.4229 34.0684 27.1494 34.0684 26.8486ZM35.3262 26.8486C35.3262 27.3226 35.2487 27.7578 35.0938 28.1543C34.9434 28.5462 34.7292 28.8857 34.4512 29.1729C34.1777 29.4554 33.8587 29.6764 33.4941 29.8359C33.1296 29.9909 32.7376 30.0684 32.3184 30.0684C31.8991 30.0684 31.5072 29.9909 31.1426 29.8359C30.778 29.6764 30.4567 29.4554 30.1787 29.1729C29.9053 28.8857 29.6911 28.5462 29.5361 28.1543C29.3857 27.7624 29.3105 27.3271 29.3105 26.8486C29.3105 26.3747 29.3857 25.9417 29.5361 25.5498C29.6911 25.1579 29.9053 24.8206 30.1787 24.5381C30.4567 24.251 30.778 24.0277 31.1426 23.8682C31.5072 23.7087 31.8991 23.6289 32.3184 23.6289C32.7376 23.6289 33.1296 23.7087 33.4941 23.8682C33.8587 24.0277 34.1777 24.251 34.4512 24.5381C34.7292 24.8206 34.9434 25.1579 35.0938 25.5498C35.2487 25.9417 35.3262 26.3747 35.3262 26.8486ZM40.7881 26.7119C40.9567 26.7939 41.1071 26.9056 41.2393 27.0469C41.3532 27.1699 41.458 27.3249 41.5537 27.5117C41.6494 27.694 41.6973 27.9173 41.6973 28.1816C41.6973 28.4414 41.6494 28.6829 41.5537 28.9062C41.4626 29.1296 41.335 29.321 41.1709 29.4805C41.0114 29.64 40.8132 29.7676 40.5762 29.8633C40.3438 29.9544 40.0885 30 39.8105 30H36.6592V23.6973H39.5986C39.8766 23.6973 40.1318 23.7428 40.3643 23.834C40.6012 23.9206 40.7995 24.0436 40.959 24.2031C41.123 24.3626 41.2507 24.5495 41.3418 24.7637C41.4375 24.9779 41.4854 25.2057 41.4854 25.4473C41.4854 25.6797 41.4489 25.8734 41.376 26.0283C41.3031 26.1833 41.2233 26.3132 41.1367 26.418C41.0365 26.5319 40.9202 26.6299 40.7881 26.7119ZM37.917 24.75V26.2881H39.4551C39.6693 26.2881 39.8516 26.2152 40.002 26.0693C40.1523 25.9189 40.2275 25.7367 40.2275 25.5225C40.2275 25.3083 40.1523 25.126 40.002 24.9756C39.8561 24.8252 39.6738 24.75 39.4551 24.75H37.917ZM39.667 28.9473C39.8812 28.9473 40.0635 28.8698 40.2139 28.7148C40.3643 28.5553 40.4395 28.3548 40.4395 28.1133C40.4395 27.8991 40.3643 27.7168 40.2139 27.5664C40.0635 27.416 39.8812 27.3408 39.667 27.3408H37.917V28.9473H39.667ZM49.9619 23.6973V30H48.6973V23.6973H49.9619ZM45.6895 25.8027C46.0085 25.8027 46.3001 25.8574 46.5645 25.9668C46.8288 26.0716 47.0566 26.2174 47.248 26.4043C47.4395 26.5911 47.5876 26.8122 47.6924 27.0674C47.8018 27.3226 47.8564 27.6006 47.8564 27.9014C47.8564 28.2021 47.8018 28.4801 47.6924 28.7354C47.5876 28.9906 47.4395 29.2116 47.248 29.3984C47.0566 29.5853 46.8288 29.7334 46.5645 29.8428C46.3001 29.9476 46.0085 30 45.6895 30H43.0303V23.6973H44.2881V25.8027H45.6895ZM45.6895 28.8105C45.931 28.8105 46.1429 28.7194 46.3252 28.5371C46.5075 28.3548 46.5986 28.1429 46.5986 27.9014C46.5986 27.6598 46.5075 27.4479 46.3252 27.2656C46.1429 27.0833 45.931 26.9922 45.6895 26.9922H44.2881V28.8105H45.6895ZM57.1738 23.6973V30H55.916V25.5908L52.9014 30H51.6436V23.6973H52.9014V28.1133L55.916 23.6973H57.1738ZM54.3711 22.7881C53.8743 22.7881 53.4642 22.6354 53.1406 22.3301C52.8216 22.0202 52.6257 21.6374 52.5527 21.1816H53.5303C53.5667 21.3958 53.6624 21.5781 53.8174 21.7285C53.9723 21.8743 54.1569 21.9473 54.3711 21.9473C54.5853 21.9473 54.7699 21.8743 54.9248 21.7285C55.0798 21.5781 55.1755 21.3958 55.2119 21.1816H56.1895C56.1165 21.6374 55.9183 22.0202 55.5947 22.3301C55.2757 22.6354 54.8678 22.7881 54.3711 22.7881ZM67.3867 27.6895C67.3138 28.0267 67.1976 28.3411 67.0381 28.6328C66.8786 28.9199 66.6758 29.1706 66.4297 29.3848C66.1882 29.599 65.9102 29.7676 65.5957 29.8906C65.2858 30.0091 64.9486 30.0684 64.584 30.0684C64.1647 30.0684 63.7728 29.9909 63.4082 29.8359C63.0436 29.6764 62.7223 29.4554 62.4443 29.1729C62.1709 28.8857 61.9567 28.5462 61.8018 28.1543C61.6514 27.7624 61.5762 27.3271 61.5762 26.8486C61.5762 26.3747 61.6514 25.9417 61.8018 25.5498C61.9567 25.1579 62.1709 24.8206 62.4443 24.5381C62.7223 24.251 63.0436 24.0277 63.4082 23.8682C63.7728 23.7087 64.1647 23.6289 64.584 23.6289C64.9486 23.6289 65.2858 23.6904 65.5957 23.8135C65.9102 23.932 66.1882 24.1006 66.4297 24.3193C66.6758 24.5335 66.8763 24.7865 67.0312 25.0781C67.1908 25.3652 67.3092 25.6751 67.3867 26.0078H66.0537C65.9489 25.6523 65.7757 25.3652 65.5342 25.1465C65.2926 24.9277 64.9759 24.8184 64.584 24.8184C64.3607 24.8184 64.1419 24.8685 63.9277 24.9688C63.7135 25.0645 63.5267 25.2035 63.3672 25.3857C63.2077 25.568 63.0778 25.7845 62.9775 26.0352C62.8818 26.2812 62.834 26.5524 62.834 26.8486C62.834 27.1494 62.8818 27.4229 62.9775 27.6689C63.0778 27.915 63.2077 28.1292 63.3672 28.3115C63.5267 28.4938 63.7135 28.6351 63.9277 28.7354C64.1419 28.8311 64.3607 28.8789 64.584 28.8789C64.9759 28.8789 65.2926 28.7695 65.5342 28.5508C65.7803 28.332 65.9535 28.0449 66.0537 27.6895H67.3867ZM71.0986 23.6289C71.4632 23.6289 71.7959 23.6882 72.0967 23.8066C72.402 23.9206 72.6618 24.0778 72.876 24.2783C73.0902 24.4788 73.2565 24.7158 73.375 24.9893C73.4935 25.2581 73.5527 25.5521 73.5527 25.8711V30H72.6436L72.3633 29.3711C72.2402 29.5033 72.0944 29.6195 71.9258 29.7197C71.7754 29.8109 71.5863 29.8929 71.3584 29.9658C71.1305 30.0342 70.8571 30.0684 70.5381 30.0684C69.8363 30.0684 69.2985 29.8952 68.9248 29.5488C68.5557 29.1979 68.3711 28.7422 68.3711 28.1816C68.3711 27.8626 68.4303 27.5755 68.5488 27.3203C68.6719 27.0605 68.8792 26.8418 69.1709 26.6641C69.4671 26.4818 69.8659 26.3405 70.3672 26.2402C70.873 26.1354 71.5133 26.083 72.2881 26.083V25.8711C72.2881 25.5521 72.1878 25.2969 71.9873 25.1055C71.7868 24.9141 71.4906 24.8184 71.0986 24.8184C70.6794 24.8184 70.374 24.8936 70.1826 25.0439C69.9912 25.1943 69.8773 25.3766 69.8408 25.5908H68.583C68.6195 25.0303 68.8542 24.5632 69.2871 24.1895C69.7201 23.8158 70.3239 23.6289 71.0986 23.6289ZM70.6133 28.9473C71.1465 28.9473 71.5589 28.8105 71.8506 28.5371C72.1423 28.2637 72.2881 27.931 72.2881 27.5391V27.1973C71.7275 27.1973 71.2741 27.2246 70.9277 27.2793C70.5859 27.3294 70.3171 27.4001 70.1211 27.4912C69.9251 27.5778 69.793 27.6872 69.7246 27.8193C69.6608 27.9469 69.6289 28.0905 69.6289 28.25C69.6289 28.4277 69.7132 28.5895 69.8818 28.7354C70.0505 28.8766 70.2943 28.9473 70.6133 28.9473ZM80.6895 23.6973V30H79.4316V25.5908L76.417 30H75.1592V23.6973H76.417V28.1133L79.4316 23.6973H80.6895ZM77.8867 22.7881C77.39 22.7881 76.9798 22.6354 76.6562 22.3301C76.3372 22.0202 76.1413 21.6374 76.0684 21.1816H77.0459C77.0824 21.3958 77.1781 21.5781 77.333 21.7285C77.488 21.8743 77.6725 21.9473 77.8867 21.9473C78.1009 21.9473 78.2855 21.8743 78.4404 21.7285C78.5954 21.5781 78.6911 21.3958 78.7275 21.1816H79.7051C79.6322 21.6374 79.4339 22.0202 79.1104 22.3301C78.7913 22.6354 78.3835 22.7881 77.8867 22.7881ZM81.7354 23.6973H86.9102V24.8867H84.9551V30H83.6904V24.8867H81.7354V23.6973ZM96.5078 27.6895C96.4349 28.0267 96.3187 28.3411 96.1592 28.6328C95.9997 28.9199 95.7969 29.1706 95.5508 29.3848C95.3092 29.599 95.0312 29.7676 94.7168 29.8906C94.4069 30.0091 94.0697 30.0684 93.7051 30.0684C93.2858 30.0684 92.8939 29.9909 92.5293 29.8359C92.1647 29.6764 91.8434 29.4554 91.5654 29.1729C91.292 28.8857 91.0778 28.5462 90.9229 28.1543C90.7725 27.7624 90.6973 27.3271 90.6973 26.8486C90.6973 26.3747 90.7725 25.9417 90.9229 25.5498C91.0778 25.1579 91.292 24.8206 91.5654 24.5381C91.8434 24.251 92.1647 24.0277 92.5293 23.8682C92.8939 23.7087 93.2858 23.6289 93.7051 23.6289C94.0697 23.6289 94.4069 23.6904 94.7168 23.8135C95.0312 23.932 95.3092 24.1006 95.5508 24.3193C95.7969 24.5335 95.9974 24.7865 96.1523 25.0781C96.3118 25.3652 96.4303 25.6751 96.5078 26.0078H95.1748C95.07 25.6523 94.8968 25.3652 94.6553 25.1465C94.4137 24.9277 94.097 24.8184 93.7051 24.8184C93.4818 24.8184 93.263 24.8685 93.0488 24.9688C92.8346 25.0645 92.6478 25.2035 92.4883 25.3857C92.3288 25.568 92.1989 25.7845 92.0986 26.0352C92.0029 26.2812 91.9551 26.5524 91.9551 26.8486C91.9551 27.1494 92.0029 27.4229 92.0986 27.6689C92.1989 27.915 92.3288 28.1292 92.4883 28.3115C92.6478 28.4938 92.8346 28.6351 93.0488 28.7354C93.263 28.8311 93.4818 28.8789 93.7051 28.8789C94.097 28.8789 94.4137 28.7695 94.6553 28.5508C94.9014 28.332 95.0745 28.0449 95.1748 27.6895H96.5078ZM103.856 23.6289C104.276 23.6289 104.668 23.7087 105.032 23.8682C105.397 24.0277 105.716 24.251 105.989 24.5381C106.267 24.8206 106.484 25.1579 106.639 25.5498C106.794 25.9417 106.871 26.3747 106.871 26.8486C106.871 27.3226 106.794 27.7578 106.639 28.1543C106.484 28.5462 106.267 28.8857 105.989 29.1729C105.716 29.4554 105.397 29.6764 105.032 29.8359C104.668 29.9909 104.276 30.0684 103.856 30.0684C103.556 30.0684 103.298 30.0342 103.084 29.9658C102.87 29.8975 102.69 29.8154 102.544 29.7197C102.375 29.6149 102.229 29.4987 102.106 29.3711V32.2422H100.849V23.6973H101.758L102.038 24.333C102.161 24.2008 102.305 24.0824 102.469 23.9775C102.619 23.8955 102.808 23.818 103.036 23.7451C103.264 23.6676 103.537 23.6289 103.856 23.6289ZM103.788 28.8789C104.03 28.8789 104.26 28.8311 104.479 28.7354C104.697 28.6351 104.891 28.4938 105.06 28.3115C105.228 28.1292 105.36 27.915 105.456 27.6689C105.556 27.4229 105.606 27.1494 105.606 26.8486C105.606 26.5479 105.556 26.2744 105.456 26.0283C105.36 25.7822 105.228 25.568 105.06 25.3857C104.891 25.2035 104.697 25.0645 104.479 24.9688C104.26 24.8685 104.03 24.8184 103.788 24.8184C103.547 24.8184 103.314 24.8685 103.091 24.9688C102.872 25.0645 102.678 25.2035 102.51 25.3857C102.346 25.568 102.214 25.7845 102.113 26.0352C102.018 26.2812 101.97 26.5524 101.97 26.8486C101.97 27.1494 102.018 27.4229 102.113 27.6689C102.214 27.915 102.346 28.1292 102.51 28.3115C102.678 28.4938 102.872 28.6351 103.091 28.7354C103.314 28.8311 103.547 28.8789 103.788 28.8789ZM110.651 23.6289C111.016 23.6289 111.349 23.6882 111.649 23.8066C111.955 23.9206 112.215 24.0778 112.429 24.2783C112.643 24.4788 112.809 24.7158 112.928 24.9893C113.046 25.2581 113.105 25.5521 113.105 25.8711V30H112.196L111.916 29.3711C111.793 29.5033 111.647 29.6195 111.479 29.7197C111.328 29.8109 111.139 29.8929 110.911 29.9658C110.683 30.0342 110.41 30.0684 110.091 30.0684C109.389 30.0684 108.851 29.8952 108.478 29.5488C108.108 29.1979 107.924 28.7422 107.924 28.1816C107.924 27.8626 107.983 27.5755 108.102 27.3203C108.225 27.0605 108.432 26.8418 108.724 26.6641C109.02 26.4818 109.419 26.3405 109.92 26.2402C110.426 26.1354 111.066 26.083 111.841 26.083V25.8711C111.841 25.5521 111.741 25.2969 111.54 25.1055C111.34 24.9141 111.043 24.8184 110.651 24.8184C110.232 24.8184 109.927 24.8936 109.735 25.0439C109.544 25.1943 109.43 25.3766 109.394 25.5908H108.136C108.172 25.0303 108.407 24.5632 108.84 24.1895C109.273 23.8158 109.877 23.6289 110.651 23.6289ZM110.166 28.9473C110.699 28.9473 111.112 28.8105 111.403 28.5371C111.695 28.2637 111.841 27.931 111.841 27.5391V27.1973C111.28 27.1973 110.827 27.2246 110.48 27.2793C110.139 27.3294 109.87 27.4001 109.674 27.4912C109.478 27.5778 109.346 27.6872 109.277 27.8193C109.214 27.9469 109.182 28.0905 109.182 28.25C109.182 28.4277 109.266 28.5895 109.435 28.7354C109.603 28.8766 109.847 28.9473 110.166 28.9473ZM120.174 27.6895C120.101 28.0267 119.985 28.3411 119.825 28.6328C119.666 28.9199 119.463 29.1706 119.217 29.3848C118.975 29.599 118.697 29.7676 118.383 29.8906C118.073 30.0091 117.736 30.0684 117.371 30.0684C116.952 30.0684 116.56 29.9909 116.195 29.8359C115.831 29.6764 115.509 29.4554 115.231 29.1729C114.958 28.8857 114.744 28.5462 114.589 28.1543C114.438 27.7624 114.363 27.3271 114.363 26.8486C114.363 26.3747 114.438 25.9417 114.589 25.5498C114.744 25.1579 114.958 24.8206 115.231 24.5381C115.509 24.251 115.831 24.0277 116.195 23.8682C116.56 23.7087 116.952 23.6289 117.371 23.6289C117.736 23.6289 118.073 23.6904 118.383 23.8135C118.697 23.932 118.975 24.1006 119.217 24.3193C119.463 24.5335 119.663 24.7865 119.818 25.0781C119.978 25.3652 120.096 25.6751 120.174 26.0078H118.841C118.736 25.6523 118.563 25.3652 118.321 25.1465C118.08 24.9277 117.763 24.8184 117.371 24.8184C117.148 24.8184 116.929 24.8685 116.715 24.9688C116.501 25.0645 116.314 25.2035 116.154 25.3857C115.995 25.568 115.865 25.7845 115.765 26.0352C115.669 26.2812 115.621 26.5524 115.621 26.8486C115.621 27.1494 115.669 27.4229 115.765 27.6689C115.865 27.915 115.995 28.1292 116.154 28.3115C116.314 28.4938 116.501 28.6351 116.715 28.7354C116.929 28.8311 117.148 28.8789 117.371 28.8789C117.763 28.8789 118.08 28.7695 118.321 28.5508C118.567 28.332 118.741 28.0449 118.841 27.6895H120.174ZM126.969 23.6973V30H125.711V24.8867H122.696V30H121.438V23.6973H126.969ZM134.174 23.6973V30H132.916V25.5908L129.901 30H128.644V23.6973H129.901V28.1133L132.916 23.6973H134.174ZM141.311 27.6895C141.238 28.0267 141.121 28.3411 140.962 28.6328C140.802 28.9199 140.6 29.1706 140.354 29.3848C140.112 29.599 139.834 29.7676 139.52 29.8906C139.21 30.0091 138.872 30.0684 138.508 30.0684C138.089 30.0684 137.697 29.9909 137.332 29.8359C136.967 29.6764 136.646 29.4554 136.368 29.1729C136.095 28.8857 135.881 28.5462 135.726 28.1543C135.575 27.7624 135.5 27.3271 135.5 26.8486C135.5 26.3747 135.575 25.9417 135.726 25.5498C135.881 25.1579 136.095 24.8206 136.368 24.5381C136.646 24.251 136.967 24.0277 137.332 23.8682C137.697 23.7087 138.089 23.6289 138.508 23.6289C138.872 23.6289 139.21 23.6904 139.52 23.8135C139.834 23.932 140.112 24.1006 140.354 24.3193C140.6 24.5335 140.8 24.7865 140.955 25.0781C141.115 25.3652 141.233 25.6751 141.311 26.0078H139.978C139.873 25.6523 139.7 25.3652 139.458 25.1465C139.216 24.9277 138.9 24.8184 138.508 24.8184C138.285 24.8184 138.066 24.8685 137.852 24.9688C137.637 25.0645 137.451 25.2035 137.291 25.3857C137.132 25.568 137.002 25.7845 136.901 26.0352C136.806 26.2812 136.758 26.5524 136.758 26.8486C136.758 27.1494 136.806 27.4229 136.901 27.6689C137.002 27.915 137.132 28.1292 137.291 28.3115C137.451 28.4938 137.637 28.6351 137.852 28.7354C138.066 28.8311 138.285 28.8789 138.508 28.8789C138.9 28.8789 139.216 28.7695 139.458 28.5508C139.704 28.332 139.877 28.0449 139.978 27.6895H141.311ZM145.022 23.6289C145.387 23.6289 145.72 23.6882 146.021 23.8066C146.326 23.9206 146.586 24.0778 146.8 24.2783C147.014 24.4788 147.18 24.7158 147.299 24.9893C147.417 25.2581 147.477 25.5521 147.477 25.8711V30H146.567L146.287 29.3711C146.164 29.5033 146.018 29.6195 145.85 29.7197C145.699 29.8109 145.51 29.8929 145.282 29.9658C145.054 30.0342 144.781 30.0684 144.462 30.0684C143.76 30.0684 143.222 29.8952 142.849 29.5488C142.479 29.1979 142.295 28.7422 142.295 28.1816C142.295 27.8626 142.354 27.5755 142.473 27.3203C142.596 27.0605 142.803 26.8418 143.095 26.6641C143.391 26.4818 143.79 26.3405 144.291 26.2402C144.797 26.1354 145.437 26.083 146.212 26.083V25.8711C146.212 25.5521 146.112 25.2969 145.911 25.1055C145.711 24.9141 145.414 24.8184 145.022 24.8184C144.603 24.8184 144.298 24.8936 144.106 25.0439C143.915 25.1943 143.801 25.3766 143.765 25.5908H142.507C142.543 25.0303 142.778 24.5632 143.211 24.1895C143.644 23.8158 144.248 23.6289 145.022 23.6289ZM144.537 28.9473C145.07 28.9473 145.483 28.8105 145.774 28.5371C146.066 28.2637 146.212 27.931 146.212 27.5391V27.1973C145.651 27.1973 145.198 27.2246 144.852 27.2793C144.51 27.3294 144.241 27.4001 144.045 27.4912C143.849 27.5778 143.717 27.6872 143.648 27.8193C143.585 27.9469 143.553 28.0905 143.553 28.25C143.553 28.4277 143.637 28.5895 143.806 28.7354C143.974 28.8766 144.218 28.9473 144.537 28.9473ZM154.613 23.6973V30H153.355V27.4092H150.341V30H149.083V23.6973H150.341V26.2197H153.355V23.6973H154.613ZM161.818 23.6973V30H160.561V25.5908L157.546 30H156.288V23.6973H157.546V28.1133L160.561 23.6973H161.818ZM168.955 28.1816C168.85 28.4414 168.718 28.6852 168.559 28.9131C168.399 29.141 168.208 29.3415 167.984 29.5146C167.761 29.6878 167.501 29.8245 167.205 29.9248C166.913 30.0205 166.585 30.0684 166.221 30.0684C165.801 30.0684 165.41 29.9909 165.045 29.8359C164.68 29.6764 164.361 29.4554 164.088 29.1729C163.814 28.8857 163.6 28.5462 163.445 28.1543C163.29 27.7624 163.213 27.3271 163.213 26.8486C163.213 26.3747 163.29 25.9417 163.445 25.5498C163.6 25.1579 163.81 24.8206 164.074 24.5381C164.339 24.251 164.651 24.0277 165.011 23.8682C165.371 23.7087 165.751 23.6289 166.152 23.6289C166.553 23.6289 166.934 23.7087 167.294 23.8682C167.654 24.0277 167.966 24.251 168.23 24.5381C168.495 24.8206 168.704 25.1579 168.859 25.5498C169.014 25.9417 169.092 26.3747 169.092 26.8486C169.092 26.9215 169.087 26.9945 169.078 27.0674C169.069 27.1357 169.06 27.195 169.051 27.2451C169.042 27.3089 169.033 27.3636 169.023 27.4092H164.539C164.557 27.6051 164.614 27.792 164.71 27.9697C164.806 28.1475 164.924 28.3047 165.065 28.4414C165.211 28.5736 165.384 28.6807 165.585 28.7627C165.785 28.8402 165.997 28.8789 166.221 28.8789C166.604 28.8789 166.907 28.7969 167.13 28.6328C167.358 28.4688 167.522 28.3184 167.622 28.1816H168.955ZM166.152 24.8184C165.733 24.8184 165.378 24.9619 165.086 25.249C164.799 25.5316 164.617 25.903 164.539 26.3633H167.902C167.829 25.9076 167.643 25.5361 167.342 25.249C167.046 24.9619 166.649 24.8184 166.152 24.8184ZM173.364 30L171.683 26.5V30H170.425V23.6973H171.546L173.781 28.3184L176.023 23.6973H177.145V30H175.887V26.5L174.205 30H173.364Z" fill="white"/>
<path opacity="0.7" d="M21.1211 38.1816H26.583V39.3027H22.2422V41.8184H24.5527C24.9355 41.8184 25.2887 41.8844 25.6123 42.0166C25.9404 42.1488 26.223 42.3311 26.46 42.5635C26.6969 42.7959 26.8815 43.0716 27.0137 43.3906C27.1458 43.7051 27.2119 44.0446 27.2119 44.4092C27.2119 44.7738 27.1458 45.1156 27.0137 45.4346C26.8815 45.749 26.6969 46.0247 26.46 46.2617C26.223 46.4941 25.9404 46.6764 25.6123 46.8086C25.2887 46.9362 24.9355 47 24.5527 47H21.1211V38.1816ZM22.2422 42.8027V46.0225H24.5527C25.0085 46.0225 25.3776 45.8789 25.6602 45.5918C25.9473 45.3001 26.0908 44.9059 26.0908 44.4092C26.0908 43.9124 25.9473 43.5205 25.6602 43.2334C25.3776 42.9463 25.0085 42.8027 24.5527 42.8027H22.2422ZM35.3262 40.6973V47H34.2734V40.6973H35.3262ZM31.1289 42.9395C31.7988 42.9395 32.3275 43.1286 32.7148 43.5068C33.1022 43.8851 33.2959 44.3727 33.2959 44.9697C33.2959 45.5667 33.1022 46.0544 32.7148 46.4326C32.3275 46.8109 31.7988 47 31.1289 47H28.6748V40.6973H29.7275V42.9395H31.1289ZM31.1289 46.0225C31.4479 46.0225 31.7122 45.9176 31.9219 45.708C32.1361 45.4938 32.2432 45.2477 32.2432 44.9697C32.2432 44.6917 32.1361 44.4479 31.9219 44.2383C31.7077 44.0241 31.4434 43.917 31.1289 43.917H29.7275V46.0225H31.1289ZM39.6738 41.6133C39.4323 41.6133 39.1953 41.6657 38.9629 41.7705C38.735 41.8799 38.5322 42.0326 38.3545 42.2285C38.1768 42.4245 38.0378 42.6592 37.9375 42.9326C37.8327 43.2061 37.7803 43.5114 37.7803 43.8486C37.7803 44.1859 37.8327 44.4912 37.9375 44.7646C38.0423 45.0381 38.1813 45.2751 38.3545 45.4756C38.5322 45.6715 38.735 45.8219 38.9629 45.9268C39.1908 46.0361 39.4277 46.0908 39.6738 46.0908C39.8789 46.0908 40.0726 46.0521 40.2549 45.9746C40.4372 45.9017 40.599 45.8037 40.7402 45.6807C40.8861 45.5576 41.0114 45.4186 41.1162 45.2637C41.221 45.1042 41.3008 44.9355 41.3555 44.7578H42.4014C42.3285 45.0768 42.2122 45.3753 42.0527 45.6533C41.8932 45.9313 41.695 46.1774 41.458 46.3916C41.221 46.6012 40.9499 46.7676 40.6445 46.8906C40.3392 47.0137 40.0156 47.0729 39.6738 47.0684C39.2728 47.0684 38.8923 46.9886 38.5322 46.8291C38.1722 46.6696 37.86 46.4486 37.5957 46.166C37.3314 45.8835 37.1195 45.5462 36.96 45.1543C36.805 44.7624 36.7298 44.3271 36.7344 43.8486C36.7344 43.3747 36.8096 42.9417 36.96 42.5498C37.1149 42.1579 37.3268 41.8184 37.5957 41.5312C37.86 41.2487 38.1722 41.0277 38.5322 40.8682C38.8923 40.7087 39.2728 40.6289 39.6738 40.6289C40.0202 40.6289 40.3438 40.6904 40.6445 40.8135C40.9499 40.9365 41.221 41.1006 41.458 41.3057C41.695 41.5153 41.8932 41.7614 42.0527 42.0439C42.2122 42.3219 42.3285 42.6204 42.4014 42.9395H41.3555C41.3008 42.7617 41.221 42.5931 41.1162 42.4336C41.0114 42.2741 40.8861 42.1351 40.7402 42.0166C40.5944 41.8936 40.4326 41.7956 40.2549 41.7227C40.0726 41.6497 39.8789 41.6133 39.6738 41.6133ZM43.0303 40.6973H48V41.6816H46.0381V47H44.9854V41.6816H43.0303V40.6973ZM50.0234 43.8486C50.0234 44.1859 50.0781 44.4912 50.1875 44.7646C50.2969 45.0381 50.4382 45.2751 50.6113 45.4756C50.7891 45.6715 50.9964 45.8219 51.2334 45.9268C51.4704 46.0361 51.721 46.0908 51.9854 46.0908C52.2451 46.0908 52.4958 46.0361 52.7373 45.9268C52.9743 45.8174 53.1816 45.667 53.3594 45.4756C53.5371 45.2796 53.6784 45.0426 53.7832 44.7646C53.8926 44.4912 53.9473 44.1859 53.9473 43.8486C53.9473 43.5114 53.8926 43.2061 53.7832 42.9326C53.6738 42.6592 53.5326 42.4245 53.3594 42.2285C53.1816 42.0326 52.9743 41.8799 52.7373 41.7705C52.5003 41.6611 52.2497 41.6087 51.9854 41.6133C51.7256 41.6133 51.4749 41.6657 51.2334 41.7705C50.9964 41.8799 50.7891 42.0326 50.6113 42.2285C50.4336 42.4245 50.2923 42.6592 50.1875 42.9326C50.0781 43.2061 50.0234 43.5114 50.0234 43.8486ZM50.167 41.4014C50.2992 41.2601 50.4564 41.1348 50.6387 41.0254C50.7982 40.9206 50.9941 40.8294 51.2266 40.752C51.459 40.6745 51.7347 40.6335 52.0537 40.6289C52.4548 40.6289 52.8353 40.7087 53.1953 40.8682C53.5553 41.0277 53.8675 41.2487 54.1318 41.5312C54.3962 41.8138 54.6058 42.1533 54.7607 42.5498C54.9157 42.9417 54.9932 43.3747 54.9932 43.8486C54.9932 44.3226 54.9157 44.7578 54.7607 45.1543C54.6058 45.5462 54.3962 45.8835 54.1318 46.166C53.8675 46.4486 53.5553 46.6696 53.1953 46.8291C52.8353 46.9886 52.4548 47.0684 52.0537 47.0684C51.7347 47.0684 51.459 47.0251 51.2266 46.9385C50.9941 46.8519 50.7982 46.7562 50.6387 46.6514C50.4518 46.5283 50.2946 46.387 50.167 46.2275V49.2422H49.1143V40.6973H49.8867L50.167 41.4014ZM63.0391 40.6973V47H61.9863V40.6973H63.0391ZM58.8418 42.9395C59.5117 42.9395 60.0404 43.1286 60.4277 43.5068C60.8151 43.8851 61.0088 44.3727 61.0088 44.9697C61.0088 45.5667 60.8151 46.0544 60.4277 46.4326C60.0404 46.8109 59.5117 47 58.8418 47H56.3877V40.6973H57.4404V42.9395H58.8418ZM58.8418 46.0225C59.1608 46.0225 59.4251 45.9176 59.6348 45.708C59.849 45.4938 59.9561 45.2477 59.9561 44.9697C59.9561 44.6917 59.849 44.4479 59.6348 44.2383C59.4206 44.0241 59.1562 43.917 58.8418 43.917H57.4404V46.0225H58.8418ZM67.5234 39.7197C67.0677 39.7197 66.6917 39.5671 66.3955 39.2617C66.0993 38.9564 65.9147 38.5964 65.8418 38.1816H66.6826C66.7191 38.4232 66.8148 38.6237 66.9697 38.7832C67.1247 38.9427 67.3092 39.0225 67.5234 39.0225C67.7376 39.0225 67.9222 38.9427 68.0771 38.7832C68.2321 38.6237 68.3278 38.4232 68.3643 38.1816H69.2051C69.1322 38.6009 68.9476 38.9609 68.6514 39.2617C68.3551 39.5671 67.9792 39.7197 67.5234 39.7197ZM70.1826 40.6973V47H69.1367V42.3105L65.917 47H64.8643V40.6973H65.917V45.3867L69.1367 40.6973H70.1826ZM72.2812 47.0684C72.0671 47.0684 71.8962 47.0068 71.7686 46.8838C71.6455 46.7562 71.584 46.5853 71.584 46.3711C71.584 46.1569 71.6455 45.986 71.7686 45.8584C71.8962 45.7308 72.0671 45.667 72.2812 45.667C72.4954 45.667 72.6641 45.7308 72.7871 45.8584C72.9147 45.986 72.9785 46.1569 72.9785 46.3711C72.9785 46.7083 72.9193 47 72.8008 47.2461C72.6868 47.4922 72.5615 47.695 72.4248 47.8545C72.2562 48.0413 72.0693 48.2008 71.8643 48.333L71.7207 48.1211C71.8118 48.0299 71.8962 47.932 71.9736 47.8271C72.0374 47.736 72.099 47.6266 72.1582 47.499C72.222 47.3714 72.263 47.2279 72.2812 47.0684ZM76.6152 40.6973H77.7363L79.6299 45.5303L81.5166 40.6973H82.6377L79.9102 47.5605C79.6595 48.194 79.3952 48.6452 79.1172 48.9141C78.8438 49.1784 78.502 49.3105 78.0918 49.3105C78.0371 49.3105 77.9847 49.3083 77.9346 49.3037C77.889 49.2992 77.8434 49.2923 77.7979 49.2832C77.7523 49.2741 77.709 49.2604 77.668 49.2422V48.4014C77.987 48.4014 78.2262 48.3307 78.3857 48.1895C78.5452 48.0482 78.6797 47.8385 78.7891 47.5605L79.0693 46.8633L76.6152 40.6973ZM89.3643 46.0225V48.5381H88.3799V47H83.7588V48.5381H82.7812V46.0225H83.1299C83.2712 45.9176 83.3965 45.7946 83.5059 45.6533C83.6107 45.5303 83.7064 45.3867 83.793 45.2227C83.8841 45.054 83.9434 44.8535 83.9707 44.6211L84.3945 40.6973H88.5234V46.0225H89.3643ZM85.0234 44.6211C85.0052 44.8535 84.9596 45.054 84.8867 45.2227C84.8184 45.3913 84.7454 45.5348 84.668 45.6533C84.5768 45.7946 84.4857 45.9176 84.3945 46.0225H87.4707V41.6816H85.3311L85.0234 44.6211ZM91.1826 43.8486C91.1826 44.1859 91.235 44.4912 91.3398 44.7646C91.4447 45.0381 91.5837 45.2751 91.7568 45.4756C91.9346 45.6715 92.1374 45.8219 92.3652 45.9268C92.5931 46.0361 92.8301 46.0908 93.0762 46.0908C93.3177 46.0908 93.5524 46.0361 93.7803 45.9268C94.0081 45.8174 94.2087 45.667 94.3818 45.4756C94.555 45.2796 94.6963 45.0426 94.8057 44.7646C94.915 44.4912 94.9674 44.1859 94.9629 43.8486C94.9629 43.5114 94.9105 43.2061 94.8057 42.9326C94.6963 42.6592 94.555 42.4245 94.3818 42.2285C94.2087 42.0326 94.0081 41.8799 93.7803 41.7705C93.5524 41.6611 93.3177 41.6087 93.0762 41.6133C92.8346 41.6133 92.5977 41.6657 92.3652 41.7705C92.1374 41.8799 91.9346 42.0326 91.7568 42.2285C91.5791 42.4245 91.4401 42.6592 91.3398 42.9326C91.235 43.2061 91.1826 43.5114 91.1826 43.8486ZM96.0156 43.8486C96.0156 44.3226 95.9382 44.7578 95.7832 45.1543C95.6283 45.5462 95.4186 45.8835 95.1543 46.166C94.89 46.4486 94.5778 46.6696 94.2178 46.8291C93.8577 46.9886 93.4772 47.0684 93.0762 47.0684C92.6751 47.0684 92.2946 46.9886 91.9346 46.8291C91.5745 46.6696 91.2624 46.4486 90.998 46.166C90.7337 45.8835 90.5218 45.5462 90.3623 45.1543C90.2074 44.7624 90.1322 44.3271 90.1367 43.8486C90.1367 43.3747 90.2119 42.9417 90.3623 42.5498C90.5173 42.1579 90.7292 41.8184 90.998 41.5312C91.2624 41.2487 91.5745 41.0277 91.9346 40.8682C92.2946 40.7087 92.6751 40.6289 93.0762 40.6289C93.4772 40.6289 93.8577 40.7087 94.2178 40.8682C94.5778 41.0277 94.89 41.2487 95.1543 41.5312C95.4186 41.8138 95.6283 42.1533 95.7832 42.5498C95.9382 42.9417 96.0156 43.3747 96.0156 43.8486ZM98.1211 41.9619C98.2624 41.7751 98.4333 41.6019 98.6338 41.4424C98.8115 41.3102 99.0303 41.1895 99.29 41.0801C99.5544 40.9661 99.8643 40.9092 100.22 40.9092C100.584 40.9092 100.935 40.9889 101.272 41.1484C101.614 41.3079 101.913 41.5267 102.168 41.8047C102.428 42.0781 102.633 42.4017 102.783 42.7754C102.938 43.1445 103.016 43.5501 103.016 43.9922C103.016 44.4297 102.94 44.8353 102.79 45.209C102.644 45.5827 102.441 45.9085 102.182 46.1865C101.926 46.46 101.623 46.6764 101.272 46.8359C100.926 46.9909 100.55 47.0684 100.145 47.0684C99.7435 47.0684 99.3607 46.9818 98.9961 46.8086C98.6361 46.6354 98.3171 46.3848 98.0391 46.0566C97.7656 45.724 97.5469 45.3161 97.3828 44.833C97.2188 44.3454 97.1367 43.7848 97.1367 43.1514C97.1367 42.2445 97.2233 41.4766 97.3965 40.8477C97.5697 40.2188 97.8545 39.7061 98.251 39.3096C98.6475 38.9131 99.1715 38.6169 99.8232 38.4209C100.479 38.2249 101.288 38.0973 102.25 38.0381V39.0225C101.493 39.0589 100.862 39.1432 100.356 39.2754C99.8551 39.403 99.4473 39.5898 99.1328 39.8359C98.8184 40.0775 98.5837 40.3737 98.4287 40.7246C98.2783 41.0755 98.1758 41.488 98.1211 41.9619ZM100.145 46.0908C100.386 46.0908 100.616 46.0407 100.835 45.9404C101.058 45.8356 101.254 45.6921 101.423 45.5098C101.591 45.3275 101.724 45.1087 101.819 44.8535C101.92 44.5938 101.97 44.3066 101.97 43.9922C101.97 43.6732 101.92 43.3861 101.819 43.1309C101.724 42.8711 101.591 42.6523 101.423 42.4746C101.254 42.2923 101.061 42.1488 100.842 42.0439C100.623 41.9391 100.391 41.8867 100.145 41.8867C99.903 41.8867 99.6683 41.9414 99.4404 42.0508C99.2126 42.1602 99.0098 42.3083 98.832 42.4951C98.6543 42.682 98.513 42.903 98.4082 43.1582C98.3079 43.4134 98.2578 43.6914 98.2578 43.9922C98.2578 44.293 98.3079 44.571 98.4082 44.8262C98.513 45.0814 98.6543 45.3024 98.832 45.4893C99.0098 45.6761 99.2126 45.8242 99.4404 45.9336C99.6683 46.0384 99.903 46.0908 100.145 46.0908ZM109.735 40.6973V47H108.689V44.2725H105.47V47H104.417V40.6973H105.47V43.2881H108.689V40.6973H109.735ZM118.205 40.6973V47H117.152V40.6973H118.205ZM114.008 42.9395C114.678 42.9395 115.206 43.1286 115.594 43.5068C115.981 43.8851 116.175 44.3727 116.175 44.9697C116.175 45.5667 115.981 46.0544 115.594 46.4326C115.206 46.8109 114.678 47 114.008 47H111.554V40.6973H112.606V42.9395H114.008ZM114.008 46.0225C114.327 46.0225 114.591 45.9176 114.801 45.708C115.015 45.4938 115.122 45.2477 115.122 44.9697C115.122 44.6917 115.015 44.4479 114.801 44.2383C114.587 44.0241 114.322 43.917 114.008 43.917H112.606V46.0225H114.008ZM122.689 39.7197C122.234 39.7197 121.858 39.5671 121.562 39.2617C121.265 38.9564 121.081 38.5964 121.008 38.1816H121.849C121.885 38.4232 121.981 38.6237 122.136 38.7832C122.291 38.9427 122.475 39.0225 122.689 39.0225C122.904 39.0225 123.088 38.9427 123.243 38.7832C123.398 38.6237 123.494 38.4232 123.53 38.1816H124.371C124.298 38.6009 124.114 38.9609 123.817 39.2617C123.521 39.5671 123.145 39.7197 122.689 39.7197ZM125.349 40.6973V47H124.303V42.3105L121.083 47H120.03V40.6973H121.083V45.3867L124.303 40.6973H125.349ZM135.493 40.6973V47H134.447V42.3105L131.228 47H130.175V40.6973H131.228V45.3867L134.447 40.6973H135.493ZM141.372 47H140.319V40.6973H141.372V47ZM144.031 47L141.372 43.7119L143.751 40.6973H144.94L142.562 43.6367L145.289 47H144.031ZM147.039 43.8486C147.039 44.1859 147.094 44.4912 147.203 44.7646C147.312 45.0381 147.454 45.2751 147.627 45.4756C147.805 45.6715 148.012 45.8219 148.249 45.9268C148.486 46.0361 148.737 46.0908 149.001 46.0908C149.261 46.0908 149.511 46.0361 149.753 45.9268C149.99 45.8174 150.197 45.667 150.375 45.4756C150.553 45.2796 150.694 45.0426 150.799 44.7646C150.908 44.4912 150.963 44.1859 150.963 43.8486C150.963 43.5114 150.908 43.2061 150.799 42.9326C150.689 42.6592 150.548 42.4245 150.375 42.2285C150.197 42.0326 149.99 41.8799 149.753 41.7705C149.516 41.6611 149.265 41.6087 149.001 41.6133C148.741 41.6133 148.491 41.6657 148.249 41.7705C148.012 41.8799 147.805 42.0326 147.627 42.2285C147.449 42.4245 147.308 42.6592 147.203 42.9326C147.094 43.2061 147.039 43.5114 147.039 43.8486ZM147.183 41.4014C147.315 41.2601 147.472 41.1348 147.654 41.0254C147.814 40.9206 148.01 40.8294 148.242 40.752C148.475 40.6745 148.75 40.6335 149.069 40.6289C149.47 40.6289 149.851 40.7087 150.211 40.8682C150.571 41.0277 150.883 41.2487 151.147 41.5312C151.412 41.8138 151.621 42.1533 151.776 42.5498C151.931 42.9417 152.009 43.3747 152.009 43.8486C152.009 44.3226 151.931 44.7578 151.776 45.1543C151.621 45.5462 151.412 45.8835 151.147 46.166C150.883 46.4486 150.571 46.6696 150.211 46.8291C149.851 46.9886 149.47 47.0684 149.069 47.0684C148.75 47.0684 148.475 47.0251 148.242 46.9385C148.01 46.8519 147.814 46.7562 147.654 46.6514C147.467 46.5283 147.31 46.387 147.183 46.2275V49.2422H146.13V40.6973H146.902L147.183 41.4014ZM155.782 40.6289C156.129 40.6289 156.45 40.6882 156.746 40.8066C157.042 40.9251 157.293 41.0801 157.498 41.2715C157.708 41.4674 157.872 41.6976 157.99 41.9619C158.109 42.2217 158.166 42.502 158.161 42.8027V47H157.396L157.115 46.3027C156.974 46.4531 156.814 46.583 156.637 46.6924C156.477 46.7972 156.281 46.8861 156.049 46.959C155.816 47.0319 155.541 47.0684 155.222 47.0684C154.903 47.0684 154.616 47.0205 154.36 46.9248C154.105 46.8245 153.886 46.6878 153.704 46.5146C153.522 46.3415 153.381 46.141 153.28 45.9131C153.175 45.6852 153.123 45.4414 153.123 45.1816C153.123 44.8809 153.185 44.6074 153.308 44.3613C153.431 44.1152 153.64 43.901 153.937 43.7188C154.237 43.5365 154.645 43.3952 155.16 43.2949C155.68 43.1947 156.331 43.1468 157.115 43.1514V42.8027C157.115 42.4837 156.992 42.2057 156.746 41.9688C156.5 41.7318 156.179 41.6133 155.782 41.6133C155.39 41.6133 155.101 41.693 154.914 41.8525C154.727 42.0166 154.597 42.2399 154.524 42.5225H153.403C153.44 42.2627 153.52 42.0166 153.643 41.7842C153.766 41.5563 153.927 41.3558 154.128 41.1826C154.328 41.0094 154.565 40.875 154.839 40.7793C155.112 40.679 155.427 40.6289 155.782 40.6289ZM155.222 46.0908C155.5 46.0908 155.757 46.0452 155.994 45.9541C156.227 45.8675 156.425 45.7536 156.589 45.6123C156.753 45.471 156.881 45.3161 156.972 45.1475C157.063 44.9743 157.111 44.7988 157.115 44.6211V44.1289C156.482 44.1289 155.974 44.154 155.591 44.2041C155.208 44.2542 154.912 44.3294 154.702 44.4297C154.493 44.5299 154.351 44.6462 154.278 44.7783C154.21 44.915 154.176 45.0723 154.176 45.25C154.176 45.4642 154.271 45.6579 154.463 45.8311C154.65 46.0042 154.903 46.0908 155.222 46.0908ZM162.434 41.6133C162.192 41.6133 161.955 41.6657 161.723 41.7705C161.495 41.8799 161.292 42.0326 161.114 42.2285C160.937 42.4245 160.798 42.6592 160.697 42.9326C160.592 43.2061 160.54 43.5114 160.54 43.8486C160.54 44.1859 160.592 44.4912 160.697 44.7646C160.802 45.0381 160.941 45.2751 161.114 45.4756C161.292 45.6715 161.495 45.8219 161.723 45.9268C161.951 46.0361 162.188 46.0908 162.434 46.0908C162.639 46.0908 162.832 46.0521 163.015 45.9746C163.197 45.9017 163.359 45.8037 163.5 45.6807C163.646 45.5576 163.771 45.4186 163.876 45.2637C163.981 45.1042 164.061 44.9355 164.115 44.7578H165.161C165.088 45.0768 164.972 45.3753 164.812 45.6533C164.653 45.9313 164.455 46.1774 164.218 46.3916C163.981 46.6012 163.71 46.7676 163.404 46.8906C163.099 47.0137 162.775 47.0729 162.434 47.0684C162.033 47.0684 161.652 46.9886 161.292 46.8291C160.932 46.6696 160.62 46.4486 160.355 46.166C160.091 45.8835 159.879 45.5462 159.72 45.1543C159.565 44.7624 159.49 44.3271 159.494 43.8486C159.494 43.3747 159.569 42.9417 159.72 42.5498C159.875 42.1579 160.087 41.8184 160.355 41.5312C160.62 41.2487 160.932 41.0277 161.292 40.8682C161.652 40.7087 162.033 40.6289 162.434 40.6289C162.78 40.6289 163.104 40.6904 163.404 40.8135C163.71 40.9365 163.981 41.1006 164.218 41.3057C164.455 41.5153 164.653 41.7614 164.812 42.0439C164.972 42.3219 165.088 42.6204 165.161 42.9395H164.115C164.061 42.7617 163.981 42.5931 163.876 42.4336C163.771 42.2741 163.646 42.1351 163.5 42.0166C163.354 41.8936 163.192 41.7956 163.015 41.7227C162.832 41.6497 162.639 41.6133 162.434 41.6133ZM171.806 40.6973V47H170.76V42.3105L167.54 47H166.487V40.6973H167.54V45.3867L170.76 40.6973H171.806ZM177.473 43.7119C177.65 43.7939 177.814 43.901 177.965 44.0332C178.088 44.1471 178.2 44.2975 178.3 44.4844C178.405 44.6667 178.457 44.8991 178.457 45.1816C178.457 45.7148 178.286 46.1523 177.944 46.4941C177.603 46.8314 177.165 47 176.632 47H173.624V40.6973H176.427C176.687 40.6973 176.928 40.7428 177.151 40.834C177.375 40.9206 177.566 41.0436 177.726 41.2031C177.885 41.3626 178.01 41.5495 178.102 41.7637C178.197 41.9779 178.245 42.2057 178.245 42.4473C178.245 42.6797 178.204 42.8734 178.122 43.0283C178.045 43.1833 177.956 43.3132 177.855 43.418C177.742 43.5319 177.614 43.6299 177.473 43.7119ZM174.677 41.6816V43.2881H176.283C176.561 43.2881 176.782 43.2152 176.946 43.0693C177.11 42.9189 177.192 42.7367 177.192 42.5225C177.192 42.2809 177.11 42.0804 176.946 41.9209C176.787 41.7614 176.566 41.6816 176.283 41.6816H174.677ZM176.495 46.0225C176.737 46.0225 176.949 45.9313 177.131 45.749C177.313 45.5667 177.404 45.3548 177.404 45.1133C177.404 45.0085 177.382 44.9059 177.336 44.8057C177.29 44.7008 177.224 44.6097 177.138 44.5322C177.056 44.4502 176.958 44.3864 176.844 44.3408C176.734 44.2952 176.618 44.2725 176.495 44.2725H174.677V46.0225H176.495ZM186.578 40.6973V47H185.525V40.6973H186.578ZM182.381 42.9395C183.051 42.9395 183.579 43.1286 183.967 43.5068C184.354 43.8851 184.548 44.3727 184.548 44.9697C184.548 45.5667 184.354 46.0544 183.967 46.4326C183.579 46.8109 183.051 47 182.381 47H179.927V40.6973H180.979V42.9395H182.381ZM182.381 46.0225C182.7 46.0225 182.964 45.9176 183.174 45.708C183.388 45.4938 183.495 45.2477 183.495 44.9697C183.495 44.6917 183.388 44.4479 183.174 44.2383C182.96 44.0241 182.695 43.917 182.381 43.917H180.979V46.0225H182.381ZM191.062 39.7197C190.607 39.7197 190.231 39.5671 189.935 39.2617C189.638 38.9564 189.454 38.5964 189.381 38.1816H190.222C190.258 38.4232 190.354 38.6237 190.509 38.7832C190.664 38.9427 190.848 39.0225 191.062 39.0225C191.277 39.0225 191.461 38.9427 191.616 38.7832C191.771 38.6237 191.867 38.4232 191.903 38.1816H192.744C192.671 38.6009 192.487 38.9609 192.19 39.2617C191.894 39.5671 191.518 39.7197 191.062 39.7197ZM193.722 40.6973V47H192.676V42.3105L189.456 47H188.403V40.6973H189.456V45.3867L192.676 40.6973H193.722ZM195.123 46.3711C195.123 46.1569 195.185 45.986 195.308 45.8584C195.435 45.7308 195.606 45.667 195.82 45.667C196.035 45.667 196.203 45.7308 196.326 45.8584C196.454 45.986 196.518 46.1569 196.518 46.3711C196.518 46.5853 196.454 46.7562 196.326 46.8838C196.203 47.0068 196.035 47.0684 195.82 47.0684C195.606 47.0684 195.435 47.0068 195.308 46.8838C195.185 46.7562 195.123 46.5853 195.123 46.3711ZM24.6895 54.0908C24.3066 54.0908 23.9329 54.1774 23.5684 54.3506C23.2038 54.5238 22.8825 54.7653 22.6045 55.0752C22.3265 55.3896 22.1032 55.7611 21.9346 56.1895C21.766 56.6178 21.6816 57.085 21.6816 57.5908C21.6816 58.0967 21.766 58.5638 21.9346 58.9922C22.1032 59.4206 22.3265 59.7897 22.6045 60.0996C22.8825 60.4141 23.2038 60.6579 23.5684 60.8311C23.9329 61.0042 24.3066 61.0908 24.6895 61.0908C25.0358 61.0908 25.3525 61.0361 25.6396 60.9268C25.9268 60.8174 26.182 60.6738 26.4053 60.4961C26.624 60.3138 26.8063 60.0996 26.9521 59.8535C27.098 59.6074 27.2074 59.3431 27.2803 59.0605H28.4697C28.3467 59.4798 28.1735 59.8717 27.9502 60.2363C27.7269 60.6009 27.4535 60.9199 27.1299 61.1934C26.8063 61.4668 26.4417 61.681 26.0361 61.8359C25.626 61.9909 25.1771 62.0684 24.6895 62.0684C24.1471 62.0684 23.6276 61.9544 23.1309 61.7266C22.6296 61.4987 22.1898 61.182 21.8115 60.7764C21.4333 60.3708 21.1302 59.8968 20.9023 59.3545C20.6745 58.8122 20.5605 58.2243 20.5605 57.5908C20.5605 56.9665 20.6745 56.3809 20.9023 55.834C21.1302 55.2871 21.4333 54.8109 21.8115 54.4053C22.1898 53.9997 22.6296 53.6829 23.1309 53.4551C23.6322 53.2272 24.1517 53.1133 24.6895 53.1133C25.1634 53.1133 25.6009 53.1885 26.002 53.3389C26.3984 53.4938 26.7539 53.7103 27.0684 53.9883C27.3874 54.2617 27.6585 54.5807 27.8818 54.9453C28.1051 55.3099 28.2783 55.7018 28.4014 56.1211H27.2119C27.139 55.8431 27.0296 55.5788 26.8838 55.3281C26.738 55.082 26.5579 54.8678 26.3438 54.6855C26.1296 54.5033 25.8835 54.3574 25.6055 54.248C25.332 54.1432 25.0267 54.0908 24.6895 54.0908ZM30.8486 62H29.7959V55.6973H30.8486V62ZM33.5078 62L30.8486 58.7119L33.2275 55.6973H34.417L32.0381 58.6367L34.7656 62H33.5078ZM36.0986 58.8486C36.0986 59.1859 36.151 59.4912 36.2559 59.7646C36.3607 60.0381 36.4997 60.2751 36.6729 60.4756C36.8506 60.6715 37.0534 60.8219 37.2812 60.9268C37.5091 61.0361 37.7461 61.0908 37.9922 61.0908C38.2337 61.0908 38.4684 61.0361 38.6963 60.9268C38.9242 60.8174 39.1247 60.667 39.2979 60.4756C39.471 60.2796 39.6123 60.0426 39.7217 59.7646C39.8311 59.4912 39.8835 59.1859 39.8789 58.8486C39.8789 58.5114 39.8265 58.2061 39.7217 57.9326C39.6123 57.6592 39.471 57.4245 39.2979 57.2285C39.1247 57.0326 38.9242 56.8799 38.6963 56.7705C38.4684 56.6611 38.2337 56.6087 37.9922 56.6133C37.7507 56.6133 37.5137 56.6657 37.2812 56.7705C37.0534 56.8799 36.8506 57.0326 36.6729 57.2285C36.4951 57.4245 36.3561 57.6592 36.2559 57.9326C36.151 58.2061 36.0986 58.5114 36.0986 58.8486ZM40.9316 58.8486C40.9316 59.3226 40.8542 59.7578 40.6992 60.1543C40.5443 60.5462 40.3346 60.8835 40.0703 61.166C39.806 61.4486 39.4938 61.6696 39.1338 61.8291C38.7738 61.9886 38.3932 62.0684 37.9922 62.0684C37.5911 62.0684 37.2106 61.9886 36.8506 61.8291C36.4906 61.6696 36.1784 61.4486 35.9141 61.166C35.6497 60.8835 35.4378 60.5462 35.2783 60.1543C35.1234 59.7624 35.0482 59.3271 35.0527 58.8486C35.0527 58.3747 35.1279 57.9417 35.2783 57.5498C35.4333 57.1579 35.6452 56.8184 35.9141 56.5312C36.1784 56.2487 36.4906 56.0277 36.8506 55.8682C37.2106 55.7087 37.5911 55.6289 37.9922 55.6289C38.3932 55.6289 38.7738 55.7087 39.1338 55.8682C39.4938 56.0277 39.806 56.2487 40.0703 56.5312C40.3346 56.8138 40.5443 57.1533 40.6992 57.5498C40.8542 57.9417 40.9316 58.3747 40.9316 58.8486ZM43.2422 58.8486C43.2422 59.1859 43.2969 59.4912 43.4062 59.7646C43.5156 60.0381 43.6569 60.2751 43.8301 60.4756C44.0078 60.6715 44.2152 60.8219 44.4521 60.9268C44.6891 61.0361 44.9398 61.0908 45.2041 61.0908C45.4639 61.0908 45.7145 61.0361 45.9561 60.9268C46.193 60.8174 46.4004 60.667 46.5781 60.4756C46.7559 60.2796 46.8971 60.0426 47.002 59.7646C47.1113 59.4912 47.166 59.1859 47.166 58.8486C47.166 58.5114 47.1113 58.2061 47.002 57.9326C46.8926 57.6592 46.7513 57.4245 46.5781 57.2285C46.4004 57.0326 46.193 56.8799 45.9561 56.7705C45.7191 56.6611 45.4684 56.6087 45.2041 56.6133C44.9443 56.6133 44.6937 56.6657 44.4521 56.7705C44.2152 56.8799 44.0078 57.0326 43.8301 57.2285C43.6523 57.4245 43.5111 57.6592 43.4062 57.9326C43.2969 58.2061 43.2422 58.5114 43.2422 58.8486ZM43.3857 56.4014C43.5179 56.2601 43.6751 56.1348 43.8574 56.0254C44.0169 55.9206 44.2129 55.8294 44.4453 55.752C44.6777 55.6745 44.9535 55.6335 45.2725 55.6289C45.6735 55.6289 46.054 55.7087 46.4141 55.8682C46.7741 56.0277 47.0863 56.2487 47.3506 56.5312C47.6149 56.8138 47.8245 57.1533 47.9795 57.5498C48.1344 57.9417 48.2119 58.3747 48.2119 58.8486C48.2119 59.3226 48.1344 59.7578 47.9795 60.1543C47.8245 60.5462 47.6149 60.8835 47.3506 61.166C47.0863 61.4486 46.7741 61.6696 46.4141 61.8291C46.054 61.9886 45.6735 62.0684 45.2725 62.0684C44.9535 62.0684 44.6777 62.0251 44.4453 61.9385C44.2129 61.8519 44.0169 61.7562 43.8574 61.6514C43.6706 61.5283 43.5133 61.387 43.3857 61.2275V64.2422H42.333V55.6973H43.1055L43.3857 56.4014ZM54.7197 60.3184C54.6149 60.5417 54.4827 60.7604 54.3232 60.9746C54.1637 61.1888 53.9769 61.3757 53.7627 61.5352C53.5485 61.6947 53.307 61.8245 53.0381 61.9248C52.7692 62.0251 52.4661 62.0729 52.1289 62.0684C51.7279 62.0684 51.3473 61.9886 50.9873 61.8291C50.6273 61.6696 50.3151 61.4486 50.0508 61.166C49.7865 60.8835 49.5745 60.5462 49.415 60.1543C49.2601 59.7624 49.1849 59.3271 49.1895 58.8486C49.1895 58.3747 49.2646 57.9417 49.415 57.5498C49.57 57.1579 49.7796 56.8184 50.0439 56.5312C50.3037 56.2487 50.609 56.0277 50.96 55.8682C51.3109 55.7087 51.6777 55.6289 52.0605 55.6289C52.4434 55.6289 52.8034 55.7041 53.1406 55.8545C53.4824 56.0049 53.7786 56.2168 54.0293 56.4902C54.2799 56.7637 54.4805 57.0964 54.6309 57.4883C54.7812 57.8757 54.8564 58.3063 54.8564 58.7803C54.8564 58.8714 54.8519 58.9512 54.8428 59.0195C54.8337 59.0833 54.8245 59.138 54.8154 59.1836C54.8063 59.2383 54.7972 59.2907 54.7881 59.3408H50.3105C50.3288 59.5641 50.3903 59.7829 50.4951 59.9971C50.6045 60.2113 50.7412 60.3981 50.9053 60.5576C51.0693 60.7171 51.2585 60.8447 51.4727 60.9404C51.6868 61.0407 51.9056 61.0908 52.1289 61.0908C52.3249 61.0908 52.5003 61.0635 52.6553 61.0088C52.8102 60.9541 52.9492 60.888 53.0723 60.8105C53.1999 60.7376 53.3047 60.6556 53.3867 60.5645C53.4688 60.4779 53.5394 60.3958 53.5986 60.3184H54.7197ZM52.0605 56.6133C51.8464 56.6133 51.6413 56.6589 51.4453 56.75C51.2539 56.8411 51.0807 56.9665 50.9258 57.126C50.7663 57.2855 50.6318 57.4769 50.5225 57.7002C50.4131 57.9235 50.3424 58.1673 50.3105 58.4316H53.7354C53.6624 57.8711 53.4688 57.4268 53.1543 57.0986C52.8444 56.7751 52.4798 56.6133 52.0605 56.6133ZM61.3643 60.3184C61.2594 60.5417 61.1273 60.7604 60.9678 60.9746C60.8083 61.1888 60.6214 61.3757 60.4072 61.5352C60.193 61.6947 59.9515 61.8245 59.6826 61.9248C59.4137 62.0251 59.1107 62.0729 58.7734 62.0684C58.3724 62.0684 57.9919 61.9886 57.6318 61.8291C57.2718 61.6696 56.9596 61.4486 56.6953 61.166C56.431 60.8835 56.2191 60.5462 56.0596 60.1543C55.9046 59.7624 55.8294 59.3271 55.834 58.8486C55.834 58.3747 55.9092 57.9417 56.0596 57.5498C56.2145 57.1579 56.4242 56.8184 56.6885 56.5312C56.9482 56.2487 57.2536 56.0277 57.6045 55.8682C57.9554 55.7087 58.3223 55.6289 58.7051 55.6289C59.0879 55.6289 59.4479 55.7041 59.7852 55.8545C60.127 56.0049 60.4232 56.2168 60.6738 56.4902C60.9245 56.7637 61.125 57.0964 61.2754 57.4883C61.4258 57.8757 61.501 58.3063 61.501 58.7803C61.501 58.8714 61.4964 58.9512 61.4873 59.0195C61.4782 59.0833 61.4691 59.138 61.46 59.1836C61.4508 59.2383 61.4417 59.2907 61.4326 59.3408H56.9551C56.9733 59.5641 57.0348 59.7829 57.1396 59.9971C57.249 60.2113 57.3857 60.3981 57.5498 60.5576C57.7139 60.7171 57.903 60.8447 58.1172 60.9404C58.3314 61.0407 58.5501 61.0908 58.7734 61.0908C58.9694 61.0908 59.1449 61.0635 59.2998 61.0088C59.4548 60.9541 59.5938 60.888 59.7168 60.8105C59.8444 60.7376 59.9492 60.6556 60.0312 60.5645C60.1133 60.4779 60.1839 60.3958 60.2432 60.3184H61.3643ZM58.7051 56.6133C58.4909 56.6133 58.2858 56.6589 58.0898 56.75C57.8984 56.8411 57.7253 56.9665 57.5703 57.126C57.4108 57.2855 57.2764 57.4769 57.167 57.7002C57.0576 57.9235 56.987 58.1673 56.9551 58.4316H60.3799C60.307 57.8711 60.1133 57.4268 59.7988 57.0986C59.4889 56.7751 59.1243 56.6133 58.7051 56.6133ZM68.4258 56.6133C68.1842 56.6133 67.9473 56.6657 67.7148 56.7705C67.487 56.8799 67.2842 57.0326 67.1064 57.2285C66.9287 57.4245 66.7897 57.6592 66.6895 57.9326C66.5846 58.2061 66.5322 58.5114 66.5322 58.8486C66.5322 59.1859 66.5846 59.4912 66.6895 59.7646C66.7943 60.0381 66.9333 60.2751 67.1064 60.4756C67.2842 60.6715 67.487 60.8219 67.7148 60.9268C67.9427 61.0361 68.1797 61.0908 68.4258 61.0908C68.6309 61.0908 68.8245 61.0521 69.0068 60.9746C69.1891 60.9017 69.3509 60.8037 69.4922 60.6807C69.638 60.5576 69.7633 60.4186 69.8682 60.2637C69.973 60.1042 70.0527 59.9355 70.1074 59.7578H71.1533C71.0804 60.0768 70.9642 60.3753 70.8047 60.6533C70.6452 60.9313 70.4469 61.1774 70.21 61.3916C69.973 61.6012 69.7018 61.7676 69.3965 61.8906C69.0911 62.0137 68.7676 62.0729 68.4258 62.0684C68.0247 62.0684 67.6442 61.9886 67.2842 61.8291C66.9242 61.6696 66.612 61.4486 66.3477 61.166C66.0833 60.8835 65.8714 60.5462 65.7119 60.1543C65.557 59.7624 65.4818 59.3271 65.4863 58.8486C65.4863 58.3747 65.5615 57.9417 65.7119 57.5498C65.8669 57.1579 66.0788 56.8184 66.3477 56.5312C66.612 56.2487 66.9242 56.0277 67.2842 55.8682C67.6442 55.7087 68.0247 55.6289 68.4258 55.6289C68.7721 55.6289 69.0957 55.6904 69.3965 55.8135C69.7018 55.9365 69.973 56.1006 70.21 56.3057C70.4469 56.5153 70.6452 56.7614 70.8047 57.0439C70.9642 57.3219 71.0804 57.6204 71.1533 57.9395H70.1074C70.0527 57.7617 69.973 57.5931 69.8682 57.4336C69.7633 57.2741 69.638 57.1351 69.4922 57.0166C69.3464 56.8936 69.1846 56.7956 69.0068 56.7227C68.8245 56.6497 68.6309 56.6133 68.4258 56.6133ZM75.4189 62L73.5322 58.083V62H72.4795V55.6973H73.3887L75.7676 60.5986L78.1533 55.6973H79.0625V62H78.0098V58.083L76.123 62H75.4189ZM81.5029 58.8486C81.5029 59.1859 81.5553 59.4912 81.6602 59.7646C81.765 60.0381 81.904 60.2751 82.0771 60.4756C82.2549 60.6715 82.4577 60.8219 82.6855 60.9268C82.9134 61.0361 83.1504 61.0908 83.3965 61.0908C83.638 61.0908 83.8727 61.0361 84.1006 60.9268C84.3285 60.8174 84.529 60.667 84.7021 60.4756C84.8753 60.2796 85.0166 60.0426 85.126 59.7646C85.2354 59.4912 85.2878 59.1859 85.2832 58.8486C85.2832 58.5114 85.2308 58.2061 85.126 57.9326C85.0166 57.6592 84.8753 57.4245 84.7021 57.2285C84.529 57.0326 84.3285 56.8799 84.1006 56.7705C83.8727 56.6611 83.638 56.6087 83.3965 56.6133C83.1549 56.6133 82.918 56.6657 82.6855 56.7705C82.4577 56.8799 82.2549 57.0326 82.0771 57.2285C81.8994 57.4245 81.7604 57.6592 81.6602 57.9326C81.5553 58.2061 81.5029 58.5114 81.5029 58.8486ZM86.3359 58.8486C86.3359 59.3226 86.2585 59.7578 86.1035 60.1543C85.9486 60.5462 85.7389 60.8835 85.4746 61.166C85.2103 61.4486 84.8981 61.6696 84.5381 61.8291C84.1781 61.9886 83.7975 62.0684 83.3965 62.0684C82.9954 62.0684 82.6149 61.9886 82.2549 61.8291C81.8949 61.6696 81.5827 61.4486 81.3184 61.166C81.054 60.8835 80.8421 60.5462 80.6826 60.1543C80.5277 59.7624 80.4525 59.3271 80.457 58.8486C80.457 58.3747 80.5322 57.9417 80.6826 57.5498C80.8376 57.1579 81.0495 56.8184 81.3184 56.5312C81.5827 56.2487 81.8949 56.0277 82.2549 55.8682C82.6149 55.7087 82.9954 55.6289 83.3965 55.6289C83.7975 55.6289 84.1781 55.7087 84.5381 55.8682C84.8981 56.0277 85.2103 56.2487 85.4746 56.5312C85.7389 56.8138 85.9486 57.1533 86.1035 57.5498C86.2585 57.9417 86.3359 58.3747 86.3359 58.8486ZM86.9033 55.6973H91.873V56.6816H89.9111V62H88.8584V56.6816H86.9033V55.6973ZM93.8965 58.8486C93.8965 59.1859 93.9512 59.4912 94.0605 59.7646C94.1699 60.0381 94.3112 60.2751 94.4844 60.4756C94.6621 60.6715 94.8695 60.8219 95.1064 60.9268C95.3434 61.0361 95.5941 61.0908 95.8584 61.0908C96.1182 61.0908 96.3688 61.0361 96.6104 60.9268C96.8473 60.8174 97.0547 60.667 97.2324 60.4756C97.4102 60.2796 97.5514 60.0426 97.6562 59.7646C97.7656 59.4912 97.8203 59.1859 97.8203 58.8486C97.8203 58.5114 97.7656 58.2061 97.6562 57.9326C97.5469 57.6592 97.4056 57.4245 97.2324 57.2285C97.0547 57.0326 96.8473 56.8799 96.6104 56.7705C96.3734 56.6611 96.1227 56.6087 95.8584 56.6133C95.5986 56.6133 95.348 56.6657 95.1064 56.7705C94.8695 56.8799 94.6621 57.0326 94.4844 57.2285C94.3066 57.4245 94.1654 57.6592 94.0605 57.9326C93.9512 58.2061 93.8965 58.5114 93.8965 58.8486ZM94.04 56.4014C94.1722 56.2601 94.3294 56.1348 94.5117 56.0254C94.6712 55.9206 94.8672 55.8294 95.0996 55.752C95.332 55.6745 95.6077 55.6335 95.9268 55.6289C96.3278 55.6289 96.7083 55.7087 97.0684 55.8682C97.4284 56.0277 97.7406 56.2487 98.0049 56.5312C98.2692 56.8138 98.4788 57.1533 98.6338 57.5498C98.7887 57.9417 98.8662 58.3747 98.8662 58.8486C98.8662 59.3226 98.7887 59.7578 98.6338 60.1543C98.4788 60.5462 98.2692 60.8835 98.0049 61.166C97.7406 61.4486 97.4284 61.6696 97.0684 61.8291C96.7083 61.9886 96.3278 62.0684 95.9268 62.0684C95.6077 62.0684 95.332 62.0251 95.0996 61.9385C94.8672 61.8519 94.6712 61.7562 94.5117 61.6514C94.3249 61.5283 94.1676 61.387 94.04 61.2275V64.2422H92.9873V55.6973H93.7598L94.04 56.4014ZM105.579 55.6973V62H104.533V57.3105L101.313 62H100.261V55.6973H101.313V60.3867L104.533 55.6973H105.579ZM108.73 59.9014H107.89L107.609 53.1816H109.011L108.73 59.9014ZM107.609 61.3711C107.609 61.1569 107.671 60.986 107.794 60.8584C107.922 60.7308 108.092 60.667 108.307 60.667C108.521 60.667 108.692 60.7308 108.819 60.8584C108.947 60.986 109.011 61.1569 109.011 61.3711C109.011 61.5853 108.947 61.7562 108.819 61.8838C108.692 62.0068 108.521 62.0684 108.307 62.0684C108.092 62.0684 107.922 62.0068 107.794 61.8838C107.671 61.7562 107.609 61.5853 107.609 61.3711Z" fill="white"/>
<path d="M27.8408 78.1816V87H26.5078V79.4395H22.3789V87H21.0527V78.1816H27.8408ZM34.1367 83.8486C34.1367 83.5479 34.0866 83.2744 33.9863 83.0283C33.8906 82.7822 33.763 82.568 33.6035 82.3857C33.444 82.2035 33.2572 82.0645 33.043 81.9688C32.8288 81.8685 32.61 81.8184 32.3867 81.8184C32.1634 81.8184 31.9447 81.8685 31.7305 81.9688C31.5163 82.0645 31.3294 82.2035 31.1699 82.3857C31.0104 82.568 30.8805 82.7845 30.7803 83.0352C30.6846 83.2812 30.6367 83.5524 30.6367 83.8486C30.6367 84.1494 30.6846 84.4229 30.7803 84.6689C30.8805 84.915 31.0104 85.1292 31.1699 85.3115C31.3294 85.4938 31.5163 85.6351 31.7305 85.7354C31.9447 85.8311 32.1634 85.8789 32.3867 85.8789C32.61 85.8789 32.8288 85.8311 33.043 85.7354C33.2572 85.6351 33.444 85.4938 33.6035 85.3115C33.763 85.1292 33.8906 84.915 33.9863 84.6689C34.0866 84.4229 34.1367 84.1494 34.1367 83.8486ZM35.3945 83.8486C35.3945 84.3226 35.3171 84.7578 35.1621 85.1543C35.0117 85.5462 34.7975 85.8857 34.5195 86.1729C34.2461 86.4554 33.9271 86.6764 33.5625 86.8359C33.1979 86.9909 32.806 87.0684 32.3867 87.0684C31.9674 87.0684 31.5755 86.9909 31.2109 86.8359C30.8464 86.6764 30.5251 86.4554 30.2471 86.1729C29.9736 85.8857 29.7594 85.5462 29.6045 85.1543C29.4541 84.7624 29.3789 84.3271 29.3789 83.8486C29.3789 83.3747 29.4541 82.9417 29.6045 82.5498C29.7594 82.1579 29.9736 81.8206 30.2471 81.5381C30.5251 81.251 30.8464 81.0277 31.2109 80.8682C31.5755 80.7087 31.9674 80.6289 32.3867 80.6289C32.806 80.6289 33.1979 80.7087 33.5625 80.8682C33.9271 81.0277 34.2461 81.251 34.5195 81.5381C34.7975 81.8206 35.0117 82.1579 35.1621 82.5498C35.3171 82.9417 35.3945 83.3747 35.3945 83.8486ZM42.1895 84.6895C42.1165 85.0267 42.0003 85.3411 41.8408 85.6328C41.6813 85.9199 41.4785 86.1706 41.2324 86.3848C40.9909 86.599 40.7129 86.7676 40.3984 86.8906C40.0885 87.0091 39.7513 87.0684 39.3867 87.0684C38.9674 87.0684 38.5755 86.9909 38.2109 86.8359C37.8464 86.6764 37.5251 86.4554 37.2471 86.1729C36.9736 85.8857 36.7594 85.5462 36.6045 85.1543C36.4541 84.7624 36.3789 84.3271 36.3789 83.8486C36.3789 83.3747 36.4541 82.9417 36.6045 82.5498C36.7594 82.1579 36.9736 81.8206 37.2471 81.5381C37.5251 81.251 37.8464 81.0277 38.2109 80.8682C38.5755 80.7087 38.9674 80.6289 39.3867 80.6289C39.7513 80.6289 40.0885 80.6904 40.3984 80.8135C40.7129 80.932 40.9909 81.1006 41.2324 81.3193C41.4785 81.5335 41.679 81.7865 41.834 82.0781C41.9935 82.3652 42.112 82.6751 42.1895 83.0078H40.8564C40.7516 82.6523 40.5785 82.3652 40.3369 82.1465C40.0954 81.9277 39.7786 81.8184 39.3867 81.8184C39.1634 81.8184 38.9447 81.8685 38.7305 81.9688C38.5163 82.0645 38.3294 82.2035 38.1699 82.3857C38.0104 82.568 37.8805 82.7845 37.7803 83.0352C37.6846 83.2812 37.6367 83.5524 37.6367 83.8486C37.6367 84.1494 37.6846 84.4229 37.7803 84.6689C37.8805 84.915 38.0104 85.1292 38.1699 85.3115C38.3294 85.4938 38.5163 85.6351 38.7305 85.7354C38.9447 85.8311 39.1634 85.8789 39.3867 85.8789C39.7786 85.8789 40.0954 85.7695 40.3369 85.5508C40.583 85.332 40.7562 85.0449 40.8564 84.6895H42.1895ZM46.3936 87L44.7119 83.5V87H43.4541V80.6973H44.5752L46.8105 85.3184L49.0527 80.6973H50.1738V87H48.916V83.5L47.2344 87H46.3936ZM56.2578 83.8486C56.2578 83.5479 56.2077 83.2744 56.1074 83.0283C56.0117 82.7822 55.8841 82.568 55.7246 82.3857C55.5651 82.2035 55.3783 82.0645 55.1641 81.9688C54.9499 81.8685 54.7311 81.8184 54.5078 81.8184C54.2845 81.8184 54.0658 81.8685 53.8516 81.9688C53.6374 82.0645 53.4505 82.2035 53.291 82.3857C53.1315 82.568 53.0016 82.7845 52.9014 83.0352C52.8057 83.2812 52.7578 83.5524 52.7578 83.8486C52.7578 84.1494 52.8057 84.4229 52.9014 84.6689C53.0016 84.915 53.1315 85.1292 53.291 85.3115C53.4505 85.4938 53.6374 85.6351 53.8516 85.7354C54.0658 85.8311 54.2845 85.8789 54.5078 85.8789C54.7311 85.8789 54.9499 85.8311 55.1641 85.7354C55.3783 85.6351 55.5651 85.4938 55.7246 85.3115C55.8841 85.1292 56.0117 84.915 56.1074 84.6689C56.2077 84.4229 56.2578 84.1494 56.2578 83.8486ZM57.5156 83.8486C57.5156 84.3226 57.4382 84.7578 57.2832 85.1543C57.1328 85.5462 56.9186 85.8857 56.6406 86.1729C56.3672 86.4554 56.0482 86.6764 55.6836 86.8359C55.319 86.9909 54.9271 87.0684 54.5078 87.0684C54.0885 87.0684 53.6966 86.9909 53.332 86.8359C52.9674 86.6764 52.6462 86.4554 52.3682 86.1729C52.0947 85.8857 51.8805 85.5462 51.7256 85.1543C51.5752 84.7624 51.5 84.3271 51.5 83.8486C51.5 83.3747 51.5752 82.9417 51.7256 82.5498C51.8805 82.1579 52.0947 81.8206 52.3682 81.5381C52.6462 81.251 52.9674 81.0277 53.332 80.8682C53.6966 80.7087 54.0885 80.6289 54.5078 80.6289C54.9271 80.6289 55.319 80.7087 55.6836 80.8682C56.0482 81.0277 56.3672 81.251 56.6406 81.5381C56.9186 81.8206 57.1328 82.1579 57.2832 82.5498C57.4382 82.9417 57.5156 83.3747 57.5156 83.8486ZM58.083 80.6973H63.2578V81.8867H61.3027V87H60.0381V81.8867H58.083V80.6973ZM67.3252 80.6289C67.7445 80.6289 68.1364 80.7087 68.501 80.8682C68.8656 81.0277 69.1846 81.251 69.458 81.5381C69.736 81.8206 69.9525 82.1579 70.1074 82.5498C70.2624 82.9417 70.3398 83.3747 70.3398 83.8486C70.3398 84.3226 70.2624 84.7578 70.1074 85.1543C69.9525 85.5462 69.736 85.8857 69.458 86.1729C69.1846 86.4554 68.8656 86.6764 68.501 86.8359C68.1364 86.9909 67.7445 87.0684 67.3252 87.0684C67.0244 87.0684 66.7669 87.0342 66.5527 86.9658C66.3385 86.8975 66.1585 86.8154 66.0127 86.7197C65.8441 86.6149 65.6982 86.4987 65.5752 86.3711V89.2422H64.3174V80.6973H65.2266L65.5068 81.333C65.6299 81.2008 65.7734 81.0824 65.9375 80.9775C66.0879 80.8955 66.277 80.818 66.5049 80.7451C66.7327 80.6676 67.0062 80.6289 67.3252 80.6289ZM67.2568 85.8789C67.4984 85.8789 67.7285 85.8311 67.9473 85.7354C68.166 85.6351 68.3597 85.4938 68.5283 85.3115C68.6969 85.1292 68.8291 84.915 68.9248 84.6689C69.0251 84.4229 69.0752 84.1494 69.0752 83.8486C69.0752 83.5479 69.0251 83.2744 68.9248 83.0283C68.8291 82.7822 68.6969 82.568 68.5283 82.3857C68.3597 82.2035 68.166 82.0645 67.9473 81.9688C67.7285 81.8685 67.4984 81.8184 67.2568 81.8184C67.0153 81.8184 66.7829 81.8685 66.5596 81.9688C66.3408 82.0645 66.1471 82.2035 65.9785 82.3857C65.8145 82.568 65.6823 82.7845 65.582 83.0352C65.4863 83.2812 65.4385 83.5524 65.4385 83.8486C65.4385 84.1494 65.4863 84.4229 65.582 84.6689C65.6823 84.915 65.8145 85.1292 65.9785 85.3115C66.1471 85.4938 66.3408 85.6351 66.5596 85.7354C66.7829 85.8311 67.0153 85.8789 67.2568 85.8789ZM77.1348 85.1816C77.0299 85.4414 76.8978 85.6852 76.7383 85.9131C76.5788 86.141 76.3874 86.3415 76.1641 86.5146C75.9408 86.6878 75.681 86.8245 75.3848 86.9248C75.0931 87.0205 74.765 87.0684 74.4004 87.0684C73.9811 87.0684 73.5892 86.9909 73.2246 86.8359C72.86 86.6764 72.541 86.4554 72.2676 86.1729C71.9941 85.8857 71.7799 85.5462 71.625 85.1543C71.4701 84.7624 71.3926 84.3271 71.3926 83.8486C71.3926 83.3747 71.4701 82.9417 71.625 82.5498C71.7799 82.1579 71.9896 81.8206 72.2539 81.5381C72.5182 81.251 72.8304 81.0277 73.1904 80.8682C73.5505 80.7087 73.931 80.6289 74.332 80.6289C74.7331 80.6289 75.1136 80.7087 75.4736 80.8682C75.8337 81.0277 76.1458 81.251 76.4102 81.5381C76.6745 81.8206 76.8841 82.1579 77.0391 82.5498C77.194 82.9417 77.2715 83.3747 77.2715 83.8486C77.2715 83.9215 77.2669 83.9945 77.2578 84.0674C77.2487 84.1357 77.2396 84.195 77.2305 84.2451C77.2214 84.3089 77.2122 84.3636 77.2031 84.4092H72.7188C72.737 84.6051 72.7939 84.792 72.8896 84.9697C72.9854 85.1475 73.1038 85.3047 73.2451 85.4414C73.391 85.5736 73.5641 85.6807 73.7646 85.7627C73.9652 85.8402 74.1771 85.8789 74.4004 85.8789C74.7832 85.8789 75.0863 85.7969 75.3096 85.6328C75.5374 85.4688 75.7015 85.3184 75.8018 85.1816H77.1348ZM74.332 81.8184C73.9128 81.8184 73.5573 81.9619 73.2656 82.249C72.9785 82.5316 72.7962 82.903 72.7188 83.3633H76.082C76.0091 82.9076 75.8223 82.5361 75.5215 82.249C75.2253 81.9619 74.8288 81.8184 74.332 81.8184ZM77.9072 80.6973H83.082V81.8867H81.127V87H79.8623V81.8867H77.9072V80.6973ZM86.9375 82.8027C87.2565 82.8027 87.5482 82.8574 87.8125 82.9668C88.0814 83.0716 88.3115 83.2174 88.5029 83.4043C88.6943 83.5911 88.8424 83.8122 88.9473 84.0674C89.0566 84.3226 89.1113 84.6006 89.1113 84.9014C89.1113 85.2021 89.0566 85.4801 88.9473 85.7354C88.8424 85.9906 88.6943 86.2116 88.5029 86.3984C88.3115 86.5853 88.0814 86.7334 87.8125 86.8428C87.5482 86.9476 87.2565 87 86.9375 87H84.1416V80.6973H85.3994V82.8027H86.9375ZM86.9375 85.8105C87.179 85.8105 87.391 85.7194 87.5732 85.5371C87.7601 85.3548 87.8535 85.1429 87.8535 84.9014C87.8535 84.6598 87.7624 84.4479 87.5801 84.2656C87.3978 84.0833 87.1836 83.9922 86.9375 83.9922H85.3994V85.8105H86.9375Z" fill="#1F7FFF"/>
<path fill-rule="evenodd" clip-rule="evenodd" d="M93 80.8167L95.4865 83.5L93 86.1833L93.7568 87L97 83.5L93.7568 80L93 80.8167Z" fill="#1F7FFF"/>
<g opacity="0.4">
<g opacity="0.2" filter="url(#filter0_f)">
<ellipse cx="255.378" cy="41.3618" rx="69.308" ry="61.3871" fill="#5C9DFF"/>
</g>
<g opacity="0.2" filter="url(#filter1_f)">
<ellipse cx="260.131" cy="61.9562" rx="79.6052" ry="61.3871" fill="#5C9DFF"/>
</g>
</g>
<g opacity="0.4">
<g opacity="0.8" filter="url(#filter2_f)">
<ellipse cx="277.072" cy="52.786" rx="60.9015" ry="59.2116" fill="white"/>
</g>
<g opacity="0.3" filter="url(#filter3_f)">
<ellipse cx="231.616" cy="52.847" rx="108.121" ry="60.9911" fill="#5C9DFF"/>
</g>
</g>
<g opacity="0.2" filter="url(#filter4_f)">
<path d="M303.859 61.4694V49.9639C307.799 49.1913 310.773 45.7195 310.773 41.5525C310.773 36.8186 306.935 32.9811 302.201 32.9811C299.848 32.9811 297.717 33.9287 296.169 35.4635L285.365 28.7328C285.404 28.3978 285.425 28.058 285.425 27.7127C285.425 22.9789 281.587 19.1414 276.853 19.1414C272.119 19.1414 268.282 22.9789 268.282 27.7127C268.282 32.4466 272.119 36.2842 276.853 36.2842C280.038 36.2842 282.818 34.5467 284.295 31.9681L294.307 38.2061C293.871 39.234 293.629 40.3653 293.629 41.5525C293.629 45.7195 296.603 49.1913 300.543 49.9639V61.4694C296.603 62.2411 293.629 65.7137 293.629 69.8808C293.629 74.6146 297.468 78.4514 302.201 78.4514C306.935 78.4514 310.773 74.6146 310.773 69.8808C310.773 65.7137 307.799 62.2411 303.859 61.4694" fill="#5C9DFF"/>
<path d="M285.424 55.7169C285.424 50.9831 281.586 47.1455 276.853 47.1455C272.12 47.1455 268.281 50.9831 268.281 55.7169C268.281 59.8832 271.255 63.3518 275.195 64.1244V75.5101C273.082 75.9239 271.248 77.1143 270.001 78.7714L260.366 72.7691C260.689 71.8665 260.865 70.8945 260.865 69.8807C260.865 65.7144 257.892 62.2419 253.951 61.4693V49.9638C257.892 49.192 260.865 45.7195 260.865 41.5532C260.865 36.8186 257.028 32.9818 252.294 32.9818C247.559 32.9818 243.723 36.8186 243.723 41.5532C243.723 45.7195 246.695 49.192 250.636 49.9638V61.4693C246.695 62.2419 243.723 65.7144 243.723 69.8807C243.723 74.6145 247.559 78.4521 252.294 78.4521C254.824 78.4521 257.098 77.3563 258.667 75.6125L268.553 81.7717C268.376 82.4583 268.281 83.1789 268.281 83.9207C268.281 88.6545 272.12 92.4921 276.853 92.4921C281.586 92.4921 285.424 88.6545 285.424 83.9207C285.424 79.7544 282.451 76.2818 278.51 75.5101V64.1244C282.45 63.3518 285.424 59.8832 285.424 55.7169" fill="#5C9DFF"/>
<path d="M274.608 91.9199C271.235 90.898 268.603 87.253 268.603 83.6053C268.603 81.4951 268.482 81.3678 263.681 78.4208C259.729 75.9946 258.588 75.5263 257.885 76.043C253.989 78.9057 249.736 78.8353 246.759 75.859C242.455 71.5545 243.714 64.4527 249.186 62.1661L251.071 61.3787V55.7732V50.1677L248.696 48.8528C242.147 45.2267 242.804 36.1897 249.797 33.7179C255.821 31.5883 262.053 37.6323 260.202 43.8094C259.522 46.08 256.225 49.5174 254.727 49.5174C254.049 49.5174 253.898 50.6513 253.898 55.7384C253.898 60.8255 254.049 61.9595 254.727 61.9595C256.125 61.9595 259.448 65.2964 260.141 67.3973C260.502 68.4907 260.647 70.1959 260.464 71.1865C260.14 72.938 260.264 73.0698 264.959 75.9653L269.787 78.9429L271.598 77.6042C272.595 76.8679 273.855 76.1086 274.4 75.9168C275.258 75.6145 275.386 74.7958 275.363 69.7535L275.336 63.9389L273.024 62.8035C267.083 59.8863 267.166 51.6239 273.169 48.4957C276.092 46.9721 279.087 47.1548 281.701 49.0162C286.667 52.5528 285.946 60.6982 280.462 63.0011L278.228 63.9389L278.223 69.6892L278.217 75.4395L280.33 76.4758C284.525 78.5325 286.153 83.403 284.095 87.739C282.56 90.9729 278.047 92.9619 274.608 91.9199H274.608Z" fill="#5C9DFF"/>
<path d="M298.73 77.2774C292.504 74.3799 292.419 65.208 298.595 62.6148L300.828 61.677L300.833 55.711L300.839 49.7449L298.839 49.0215C297.605 48.5755 296.277 47.4499 295.375 46.087C294.142 44.2247 293.951 43.4039 294.16 40.8824L294.408 37.8888L289.395 34.8582L284.383 31.8275L282.855 33.2514C280.666 35.2925 279.161 35.9445 276.641 35.9445C270.682 35.9445 266.629 28.7268 269.731 23.6387C273.755 17.0395 284.001 18.9556 284.848 26.4655C285.121 28.8939 285.211 28.9861 290.486 32.2324L295.846 35.5314L298.263 34.3241C301.33 32.7923 302.819 32.805 305.909 34.3893C311.891 37.4569 311.963 45.7531 306.032 48.6651L303.72 49.8005L303.693 55.7665L303.667 61.7326L305.63 62.4423C311.328 64.5027 312.023 73.4221 306.741 76.687C303.974 78.3965 301.523 78.5772 298.73 77.2774L298.73 77.2774Z" fill="#5C9DFF"/>
<path d="M250.772 78.2704C246.729 77.5036 243.8 74.0105 243.8 69.9568C243.8 69.3842 243.871 68.5689 243.958 68.1451C244.398 66.0039 245.753 64.0106 247.61 62.7699C248.346 62.2785 249.629 61.6976 249.873 61.745C249.96 61.762 249.765 61.8826 249.44 62.013C246.869 63.0446 245.09 65.0388 244.39 67.6744C244.093 68.7941 244.092 70.6503 244.389 71.7734C245.117 74.528 247.131 76.8272 249.605 77.7304C252.034 78.6166 254.752 78.1553 257.424 76.4035C257.851 76.1233 258.221 75.9141 258.246 75.9387C258.344 76.0365 256.799 77.1481 256.047 77.5211C254.491 78.2927 252.432 78.5853 250.772 78.2704V78.2704Z" fill="#5C9DFF"/>
<path d="M251.044 55.7771C251.044 52.6978 251.057 51.4237 251.073 52.9456C251.088 54.4676 251.088 56.987 251.073 58.5443C251.057 60.1016 251.044 58.8563 251.044 55.7771H251.044Z" fill="#5C9DFF"/>
<path d="M250.7 55.7303C250.7 50.7088 250.718 50.0417 250.85 50.0924C250.981 50.1426 251 50.8686 251 55.7879C251 60.7327 250.982 61.4258 250.85 61.4258C250.719 61.4258 250.7 60.7263 250.7 55.7303V55.7303Z" fill="#5C9DFF"/>
<path d="M300.98 78.3382C298.204 77.9024 295.798 76.1629 294.592 73.7194C293.915 72.3489 293.701 71.432 293.699 69.8936C293.697 68.7379 293.776 68.2051 294.096 67.2184C294.966 64.5305 297.279 62.3381 299.981 61.6397L300.59 61.4822V55.7181V49.954L300.08 49.8226C297.322 49.1121 295.018 46.9811 294.122 44.311C293.775 43.2775 293.706 42.822 293.705 41.5455C293.705 40.4815 293.726 40.2585 293.89 39.6014C293.993 39.1931 294.125 38.7478 294.184 38.6117L294.293 38.3642L294.294 38.647C294.295 38.8025 294.249 39.4706 294.192 40.1316C294.041 41.8729 294.053 43.1248 294.225 43.7981C294.585 45.2071 295.958 47.1791 297.255 48.153C297.929 48.6582 298.407 48.8962 299.661 49.3489L300.767 49.748V55.7077V61.6674L299.388 62.2524C297.919 62.876 297.488 63.1084 296.796 63.6517C295.601 64.5893 294.694 66.0114 294.257 67.6314C294.003 68.577 293.938 70.2659 294.118 71.2368C294.691 74.3181 296.637 76.5926 299.614 77.6623C300.672 78.0421 301.382 78.1525 302.496 78.1103C303.883 78.0578 304.938 77.7439 306.281 76.9848C308.096 75.958 309.243 74.5879 309.879 72.686C310.902 69.6261 310.194 66.122 308.131 64.0339C307.245 63.1378 306.526 62.7241 304.743 62.0843L303.7 61.7102V58.1962C303.7 56.2635 303.721 53.5846 303.747 52.243L303.793 49.8038L305.249 49.078C306.801 48.3042 307.332 47.9661 308.049 47.2958C309.62 45.8263 310.445 43.8666 310.442 41.6161C310.44 39.9627 309.984 38.4788 309.052 37.0918C308.611 36.4355 307.555 35.3961 306.849 34.9223C305.783 34.2077 304.199 33.5064 303.135 33.2781L302.675 33.1795L303.281 33.174C305.188 33.1563 307.618 34.5501 309.068 36.4936C311.579 39.8577 311.212 44.6105 308.212 47.5991C307.187 48.621 305.905 49.3711 304.52 49.7604L303.842 49.9511V55.7338C303.842 60.8062 303.855 61.5165 303.947 61.5165C304.18 61.5165 305.469 61.9765 306.033 62.2609C309.878 64.1995 311.687 68.7177 310.236 72.7568C309.815 73.9276 309.241 74.8435 308.348 75.7703C307.146 77.0174 305.909 77.7353 304.201 78.1778C303.665 78.3167 303.303 78.3587 302.463 78.379C301.88 78.3931 301.213 78.3749 300.98 78.3383L300.98 78.3382Z" fill="#5C9DFF"/>
</g>
<g filter="url(#filter5_d)">
<path d="M303.949 61.4694V49.9639C307.89 49.1913 310.864 45.7195 310.864 41.5525C310.864 36.8186 307.025 32.9811 302.292 32.9811C299.939 32.9811 297.808 33.9287 296.259 35.4635L285.455 28.7328C285.495 28.3978 285.515 28.058 285.515 27.7127C285.515 22.9789 281.678 19.1414 276.944 19.1414C272.21 19.1414 268.373 22.9789 268.373 27.7127C268.373 32.4466 272.21 36.2842 276.944 36.2842C280.129 36.2842 282.908 34.5467 284.386 31.9681L294.398 38.2061C293.962 39.234 293.72 40.3653 293.72 41.5525C293.72 45.7195 296.694 49.1913 300.634 49.9639V61.4694C296.694 62.2411 293.72 65.7137 293.72 69.8808C293.72 74.6146 297.559 78.4514 302.292 78.4514C307.025 78.4514 310.864 74.6146 310.864 69.8808C310.864 65.7137 307.89 62.2411 303.949 61.4694" fill="white"/>
<path d="M285.515 55.717C285.515 50.9831 281.677 47.1455 276.943 47.1455C272.21 47.1455 268.372 50.9831 268.372 55.717C268.372 59.8832 271.346 63.3518 275.286 64.1244V75.5101C273.173 75.924 271.338 77.1143 270.091 78.7714L260.456 72.7691C260.78 71.8665 260.955 70.8945 260.955 69.8807C260.955 65.7144 257.983 62.2419 254.042 61.4693V49.9638C257.983 49.192 260.955 45.7195 260.955 41.5532C260.955 36.8186 257.119 32.9818 252.385 32.9818C247.65 32.9818 243.813 36.8186 243.813 41.5532C243.813 45.7195 246.786 49.192 250.727 49.9638L250.727 61.4693C246.786 62.2419 243.813 65.7144 243.813 69.8807C243.813 74.6146 247.65 78.4521 252.385 78.4521C254.915 78.4521 257.189 77.3563 258.758 75.6126L268.644 81.7717C268.467 82.4583 268.372 83.1789 268.372 83.9207C268.372 88.6545 272.21 92.4921 276.943 92.4921C281.677 92.4921 285.515 88.6545 285.515 83.9207C285.515 79.7544 282.542 76.2819 278.601 75.5101V64.1244C282.541 63.3518 285.515 59.8832 285.515 55.717" fill="white"/>
<path d="M274.699 91.9198C271.326 90.8979 268.693 87.2529 268.693 83.6052C268.693 81.4949 268.573 81.3677 263.772 78.4206C259.82 75.9945 258.679 75.5262 257.975 76.0429C254.08 78.9056 249.827 78.8352 246.85 75.8588C242.546 71.5544 243.804 64.4526 249.277 62.166L251.161 61.3786V55.7731V50.1676L248.787 48.8527C242.238 45.2266 242.895 36.1896 249.887 33.7177C255.911 31.5882 262.143 37.6322 260.293 43.8093C259.612 46.0799 256.315 49.5173 254.818 49.5173C254.14 49.5173 253.989 50.6512 253.989 55.7383C253.989 60.8254 254.14 61.9593 254.818 61.9593C256.216 61.9593 259.538 65.2963 260.232 67.3972C260.593 68.4906 260.738 70.1957 260.555 71.1864C260.231 72.9379 260.355 73.0697 265.05 75.9652L269.878 78.9428L271.689 77.6041C272.685 76.8678 273.946 76.1085 274.49 75.9167C275.349 75.6143 275.477 74.7957 275.454 69.7534L275.427 63.9388L273.115 62.8034C267.174 59.8861 267.257 51.6238 273.26 48.4955C276.183 46.972 279.177 47.1547 281.791 49.0161C286.758 52.5527 286.037 60.698 280.552 63.001L278.319 63.9388L278.314 69.6891L278.308 75.4394L280.421 76.4757C284.616 78.5324 286.243 83.4029 284.186 87.7388C282.651 90.9728 278.138 92.9618 274.699 91.9198H274.699Z" fill="white"/>
<path d="M298.821 77.2773C292.595 74.3798 292.51 65.2079 298.685 62.6147L300.919 61.6769L300.924 55.7109L300.93 49.7448L298.929 49.0214C297.696 48.5754 296.367 47.4498 295.465 46.0869C294.233 44.2246 294.041 43.4037 294.25 40.8823L294.499 37.8887L289.486 34.8581L284.473 31.8274L282.946 33.2513C280.756 35.2924 279.252 35.9444 276.732 35.9444C270.773 35.9444 266.72 28.7267 269.822 23.6386C273.845 17.0394 284.092 18.9555 284.938 26.4653C285.212 28.8938 285.302 28.986 290.576 32.2323L295.936 35.5313L298.354 34.324C301.421 32.7922 302.91 32.8048 306 34.3892C311.982 37.4568 312.054 45.7529 306.123 48.665L303.811 49.8004L303.784 55.7664L303.758 61.7325L305.721 62.4422C311.418 64.5026 312.114 73.422 306.831 76.6869C304.065 78.3964 301.614 78.5771 298.821 77.2773L298.821 77.2773Z" fill="white"/>
<path d="M250.862 78.2704C246.819 77.5036 243.89 74.0105 243.89 69.9568C243.89 69.3842 243.961 68.5689 244.049 68.1451C244.489 66.0039 245.843 64.0106 247.701 62.7699C248.437 62.2785 249.719 61.6976 249.963 61.745C250.05 61.762 249.855 61.8826 249.53 62.013C246.959 63.0446 245.181 65.0388 244.481 67.6744C244.183 68.7941 244.183 70.6503 244.48 71.7734C245.208 74.528 247.221 76.8272 249.696 77.7304C252.124 78.6166 254.842 78.1553 257.514 76.4035C257.942 76.1233 258.312 75.9141 258.336 75.9387C258.434 76.0365 256.889 77.1481 256.137 77.5211C254.581 78.2927 252.522 78.5853 250.862 78.2704V78.2704Z" fill="white"/>
<path d="M251.135 55.7771C251.135 52.6978 251.147 51.4237 251.163 52.9456C251.178 54.4676 251.178 56.987 251.163 58.5443C251.148 60.1016 251.135 58.8563 251.135 55.7771H251.135Z" fill="white"/>
<path d="M250.791 55.7303C250.791 50.7088 250.809 50.0417 250.941 50.0924C251.072 50.1426 251.091 50.8686 251.091 55.7879C251.091 60.7327 251.072 61.4258 250.941 61.4258C250.809 61.4258 250.791 60.7263 250.791 55.7303V55.7303Z" fill="white"/>
<path d="M301.07 78.3382C298.294 77.9024 295.889 76.1629 294.682 73.7194C294.005 72.3489 293.791 71.432 293.789 69.8936C293.787 68.7379 293.866 68.2051 294.186 67.2184C295.057 64.5305 297.369 62.3381 300.071 61.6397L300.68 61.4822V55.7181V49.954L300.17 49.8226C297.412 49.1121 295.109 46.9811 294.212 44.311C293.865 43.2775 293.797 42.822 293.796 41.5455C293.795 40.4815 293.816 40.2585 293.981 39.6014C294.083 39.1931 294.215 38.7478 294.275 38.6117L294.383 38.3642L294.384 38.647C294.385 38.8025 294.339 39.4706 294.282 40.1316C294.132 41.8729 294.143 43.1248 294.315 43.7981C294.676 45.2071 296.048 47.1791 297.346 48.153C298.019 48.6582 298.498 48.8962 299.751 49.3489L300.857 49.748V55.7077V61.6674L299.478 62.2524C298.009 62.876 297.578 63.1084 296.886 63.6517C295.691 64.5893 294.784 66.0114 294.348 67.6314C294.093 68.577 294.028 70.266 294.209 71.2368C294.782 74.3181 296.727 76.5926 299.705 77.6623C300.762 78.0421 301.472 78.1525 302.586 78.1104C303.973 78.0578 305.029 77.7439 306.371 76.9848C308.186 75.958 309.333 74.5879 309.969 72.686C310.993 69.6261 310.285 66.122 308.221 64.0339C307.336 63.1378 306.617 62.7241 304.833 62.0843L303.791 61.7102V58.1962C303.791 56.2635 303.812 53.5846 303.837 52.243L303.884 49.8038L305.339 49.078C306.891 48.3042 307.422 47.9661 308.139 47.2958C309.71 45.8263 310.536 43.8666 310.532 41.6161C310.53 39.9627 310.074 38.4788 309.142 37.0918C308.701 36.4355 307.646 35.3961 306.939 34.9223C305.873 34.2077 304.289 33.5064 303.225 33.2781L302.766 33.1795L303.371 33.174C305.278 33.1563 307.708 34.5501 309.159 36.4936C311.669 39.8577 311.303 44.6105 308.303 47.5991C307.277 48.621 305.996 49.3711 304.61 49.7604L303.932 49.9511V55.7338C303.932 60.8062 303.945 61.5165 304.037 61.5165C304.27 61.5165 305.559 61.9765 306.124 62.2609C309.969 64.1996 311.778 68.7177 310.326 72.7568C309.905 73.9276 309.331 74.8435 308.438 75.7703C307.236 77.0174 306 77.7353 304.292 78.1778C303.755 78.3167 303.393 78.3587 302.554 78.379C301.97 78.3931 301.303 78.3749 301.07 78.3383L301.07 78.3382Z" fill="white"/>
</g>
</g>
<defs>
<filter id="filter0_f" x="-63.9297" y="-270.025" width="638.616" height="622.774" filterUnits="userSpaceOnUse" color-interpolation-filters="sRGB">
<feFlood flood-opacity="0" result="BackgroundImageFix"/>
<feBlend mode="normal" in="SourceGraphic" in2="BackgroundImageFix" result="shape"/>
<feGaussianBlur stdDeviation="125" result="effect1_foregroundBlur"/>
</filter>
<filter id="filter1_f" x="-69.4746" y="-249.431" width="659.21" height="622.774" filterUnits="userSpaceOnUse" color-interpolation-filters="sRGB">
<feFlood flood-opacity="0" result="BackgroundImageFix"/>
<feBlend mode="normal" in="SourceGraphic" in2="BackgroundImageFix" result="shape"/>
<feGaussianBlur stdDeviation="125" result="effect1_foregroundBlur"/>
</filter>
<filter id="filter2_f" x="-33.8296" y="-256.426" width="621.803" height="618.423" filterUnits="userSpaceOnUse" color-interpolation-filters="sRGB">
<feFlood flood-opacity="0" result="BackgroundImageFix"/>
<feBlend mode="normal" in="SourceGraphic" in2="BackgroundImageFix" result="shape"/>
<feGaussianBlur stdDeviation="125" result="effect1_foregroundBlur"/>
</filter>
<filter id="filter3_f" x="-126.504" y="-258.144" width="716.241" height="621.982" filterUnits="userSpaceOnUse" color-interpolation-filters="sRGB">
<feFlood flood-opacity="0" result="BackgroundImageFix"/>
<feBlend mode="normal" in="SourceGraphic" in2="BackgroundImageFix" result="shape"/>
<feGaussianBlur stdDeviation="125" result="effect1_foregroundBlur"/>
</filter>
<filter id="filter4_f" x="143.723" y="-80.8586" width="267.05" height="273.351" filterUnits="userSpaceOnUse" color-interpolation-filters="sRGB">
<feFlood flood-opacity="0" result="BackgroundImageFix"/>
<feBlend mode="normal" in="SourceGraphic" in2="BackgroundImageFix" result="shape"/>
<feGaussianBlur stdDeviation="50" result="effect1_foregroundBlur"/>
</filter>
<filter id="filter5_d" x="183.813" y="-40.8586" width="187.05" height="193.351" filterUnits="userSpaceOnUse" color-interpolation-filters="sRGB">
<feFlood flood-opacity="0" result="BackgroundImageFix"/>
<feColorMatrix in="SourceAlpha" type="matrix" values="0 0 0 0 0 0 0 0 0 0 0 0 0 0 0 0 0 0 127 0"/>
<feOffset/>
<feGaussianBlur stdDeviation="30"/>
<feColorMatrix type="matrix" values="0 0 0 0 0.879167 0 0 0 0 0.96375 0 0 0 0 1 0 0 0 0.5 0"/>
<feBlend mode="normal" in2="BackgroundImageFix" result="effect1_dropShadow"/>
<feBlend mode="normal" in="SourceGraphic" in2="effect1_dropShadow" result="shape"/>
</filter>
<clipPath id="clip0">
<rect width="332" height="110" rx="4" fill="white"/>
</clipPath>
</defs>
</svg>
